<ttFont>
          <CharString index="0">
            160 113 135 208 209 -113 131 -160 -159 -114 -131 -209 -208 114 -135 159 hvcurveto
            48 vmoveto
            -130 -87 116 179 180 87 112 130 131 87 -112 -180 -179 -87 -116 -131 hvcurveto
            return
          </CharString>
          <CharString index="1">
            57 hlineto
            -231 659 rlineto
            -55 hlineto
            -230 -659 rlineto
            54 hlineto
            75 221 rlineto
            256 hlineto
            -242 44 rmoveto
            41 119 26 77 23 70 22 79 rlinecurve
            4 hlineto
            23 -79 23 -70 26 -77 40 -119 rcurveline
            endchar
          </CharString>
          <CharString index="2">
            20 -12 44 212 36 75 36 217 43 hstem
            85 54 vstem
            445 110 rmoveto
            -52 -39 -38 -26 -55 hhcurveto
            -93 -60 81 131 -17 hvcurveto
            233 36 -236 hlineto
            -1 13 0 14 14 vvcurveto
            34 277 36 -274 vlineto
            134 16 64 83 102 hhcurveto
            46 36 -27 -39 29 hvcurveto
            33 31 rlineto
            42 -31 -52 36 -60 hhcurveto
            -129 -88 -98 -162 -20 hvcurveto
            -65 -4 rlineto
            -32 62 vlineto
            -1 -11 0 -12 0 -11 0 -14 0 -14 -13 flex1
            -62 -4 rlineto
            -32 66 vlineto
            -159 20 84 -97 117 hhcurveto
            74 51 35 59 42 hvcurveto
            endchar
          </CharString>
          <CharString index="3">
            20 -12 45 280 44 250 44 hstemhm
            159 128 67 53 -29 53 hintmask 11110100
            232 -12 rmoveto
            112 87 69 112 90 -65 59 -79 17 28 callgsubr
            69 24 51 50 82 vvcurveto
            99 -76 57 -101 -74 -56 -35 -43 -45 vhcurveto
            30 -35 rlineto
            39 36 51 30 57 hhcurveto
            76 49 -45 -71 -74 -50 -60 -145 hvcurveto
            -44 vlineto
            hintmask 11110100
            157 62 -59 -85 -82 -62 -54 -85 -85 -51 39 41 -38 hvcurveto
            -28 -35 rlineto
            -44 41 60 -46 102 hhcurveto
            endchar
          </CharString>
          <CharString index="4">
            rmoveto
            -9 callgsubr
            -17 12 -15 17 17 11 15 17 15 -58 callgsubr
          </CharString>
          <CharString index="5">
            rmoveto
            129 84 78 101 100 -64 42 -74 33 hvcurveto
            -99 43 rlineto
            -49 22 -64 28 74 vvcurveto
            69 57 45 84 65 52 -26 -41 39 vhcurveto
            30 35 rlineto
            44 -42 -65 36 -79 hhcurveto
            -111 -83 -69 -96 -97 75 -42 58 -26 hvcurveto
            99 -44 rlineto
            65 -29 52 -25 -80 vvcurveto
            -75 -61 -52 -98 -75 -68 34 53 -48 vhcurveto
            -33 -36 rlineto
            -59 53 75 -40 96 hhcurveto
            return
          </CharString>
          <CharString index="6">
            rmoveto
            66 49 37 55 47 hvcurveto
            3 hlineto
            5 -80 rlineto
            43 481 -51 -352 hlineto
            -66 -55 -40 -29 -56 hhcurveto
            -74 -32 46 100 hvcurveto
            301 -51 -308 vlineto
            -124 46 -61 100 vhcurveto
            endchar
          </CharString>
          <CharString index="7">
            358 -147 39 162 40 -33 40 283 40 172 40 hstemhm
            51 43 151 44 195 34.49 209.51 41 hintmask 1101111110000000
            390 -147 rmoveto
            69 62 17 35 57 hvcurveto
            -17 35 rlineto
            -29 -47 -55 -19 -65 hhcurveto
            -177 -123 118 195 237 173 154 182 175 104 -113 -170 -139 -78 -80 -64 -60 -21 43 89 22 hvcurveto
            36 190 rlineto
            -37 hlineto
            -9 -40 rlineto
            -2 hlineto
            33 -20 -28 15 -35 hhcurveto
            -117 -70 -127 -99 hvcurveto
            hintmask 1011111110000000
            -90 52 -47 63 45 43 31 38 34 vhcurveto
            2 hlineto
            hintmask 1101111110000000
            -51 5 40 -25 53 hhcurveto
            84 103 91 170 192 -122 129 -194 -214 -188 -171 -262 -224 146 -126 193 hvcurveto
            hintmask 1011111110000000
            -22 248 rmoveto
            -44 -35 27 73 83 55 100 87 30 19 -11 -37 24 hvcurveto
            -31 -170 rlineto
            -45 -39 -35 -20 -31 hhcurveto
            endchar
          </CharString>
          <CharString index="8">
            20 -12 45 220 42 313 43 hstem
            42 51 287 50 vstem
            220 651 rmoveto
            -96 -82 -83 -118 -129 67 -68 112 58 57 34 53 44 hvcurveto
            -229 -2 -85 -78 -99 hhcurveto
            -41 -40 18 34 -27 hvcurveto
            -31 -34 rlineto
            -37 33 45 -26 61 hhcurveto
            124 112 95 265 196 -83 107 -127 hvcurveto
            7 -356 rmoveto
            -93 -41 65 90 90 54 68 72 99 52 -86 -133 8 hvcurveto
            -68 -50 -57 -26 -44 hhcurveto
            endchar
          </CharString>
          <CharString index="9">
            -63 callsubr
            -23 -16 -17 -22 -22 16 -17 23 -81 callgsubr
            return
          </CharString>
          <CharString index="10">
            -31 callsubr
            hintmask 1111010011000000
            -82 callgsubr
            hintmask 1110110101000000
            -53 callgsubr
            hintmask 1111010011000000
            -41 callgsubr
            hintmask 1111011001000000
            -44 -30 -28 -42 -42 vvcurveto
            hintmask 1111011001100000
            -82 78 -51 121 vhcurveto
            hintmask 1111010101000000
            -60 callsubr
            hintmask 1111011001100000
            -78 callsubr
          </CharString>
          <CharString index="11">
            723 rmoveto
            23 16 15 24 23 -16 16 -23 -74 callgsubr
            198 hmoveto
            22 17 15 24 23 -17 16 -22 -74 callgsubr
            return
          </CharString>
          <CharString index="12">
            119 -12 43 599 41 hstem
            36 51 38 47 161 45 vstem
            568 33 rmoveto
            -38 12 -44 25 -45 36 53 68 38 83 26 90 rrcurveto
            -49 hlineto
            -23 -83 -33 -72 -46 -58 -67 59 -68 78 -45 81 rrcurveto
            74 55 77 57 85 vvcurveto
            70 -41 52 -73 -82 -57 -64 -85 -50 17 -56 27 -55 vhcurveto
            -69 -50 -64 -57 -86 vvcurveto
            -109 84 -71 107 75 59 33 49 48 vhcurveto
            52 -41 48 -27 43 -14 rrcurveto
            -380 535 rmoveto
            59 34 48 57 51 19 -41 -42 -66 -60 -46 -66 -47 vhcurveto
            -22 47 -13 46 42 vvcurveto
            -85 -352 rmoveto
            62 47 46 55 44 vhcurveto
            48 -82 68 -80 70 -62 rrcurveto
            -40 -41 -49 -28 -53 hhcurveto
            -79 -66 56 84 hvcurveto
            endchar
          </CharString>
          <CharString index="13">
            vstem
            503 hmoveto
            -142 209 111 341 -4 callgsubr
            -66 -213 -23 -80 -101 150 -91 143 rlineto
            -57 hlineto
            91 -143 -26 -63 -109 -344 rlineto
            53 hlineto
            113 358 241 -358 rlineto
            return
          </CharString>
          <CharString index="14">
            rmoveto
            22 31 8 10 28 hvcurveto
            -13 41 rlineto
            -8 -17 -24 -7 -18 hhcurveto
            -64 -17 40 61 hvcurveto
            304 138 44 -138 139 -43 vlineto
            -6 -139 -76 -4 rlineto
            -40 74 -301 vlineto
            -88 29 -60 94 vhcurveto
            return
          </CharString>
          <CharString index="15">
            rmoveto
            88 49 77 83 28 hvcurveto
            189 538 rlineto
            -52 hlineto
            -99 -295 -14 -42 -15 -51 -15 -43 rlinecurve
            -4 hlineto
            -17 44 -19 51 -16 41 -112 295 rcurveline
            -55 hlineto
            197 -489 -13 -40 rlineto
            -71 -24 -39 -52 -57 hhcurveto
            -14 -15 4 3 -10 hvcurveto
            -12 -43 rlineto
            -6 14 18 -4 19 hhcurveto
            endchar
          </CharString>
          <CharString index="16">
            180 hmoveto
            23 16 17 22 22 -16 17 -23 -22 -17 -17 -22 -22 17 -17 22 hvcurveto
            return
          </CharString>
          <CharString index="17">
            21 3 3 0 1 2 hvcurveto
            -56 -23 -33 -45 -34 vhcurveto
            19 -27 rlineto
            56 37 33 50 73 vvcurveto
            46 -19 25 -29 vhcurveto
            return
          </CharString>
          <CharString index="18">
            -57 323 31 138 29 -17 -20 110 30 58 31 hstemhm
            19 33 82 33 78 36 72 33 hintmask 1011111110000000
            202 323 rmoveto
            100 84 78 116 116 -84 80 -100 -100 -83 -80 -116 -116 83 -78 100 hvcurveto
            31 vmoveto
            -84 -66 68 95 96 66 69 84 84 67 -69 -96 -95 -67 -68 -84 hvcurveto
            hintmask 1101111110000000
            -68 64 rmoveto
            33 74 46 hlineto
            hintmask 1011111110000000
            38 -74 rlineto
            39 hlineto
            -48 86 rlineto
            22 7 17 23 25 vvcurveto
            49 -38 16 -39 vhcurveto
            -70 hlineto
            hintmask 1101111110000000
            33 -103 rmoveto
            73 32 vlineto
            34 12 -15 -22 -26 -20 -10 -30 hvcurveto
            endchar
          </CharString>
          <CharString index="19">
            20 -98 44 417 43 220 45 0 -20 hstemhm
            218.5 50.5 hintmask 11101000
            373 626 rmoveto
            27 18 -8 -7 15 hvcurveto
            hintmask 11011000
            14 42 rlineto
            hintmask 11101000
            8 -19 -24 10 -32 hhcurveto
            -94 -42 -77 -126 -14 hvcurveto
            -7 -62 rlineto
            -30 hlineto
            -68 -4 rlineto
            -39 94 vlineto
            -28 -254 rlineto
            -95 -10 -26 -68 -69 hhcurveto
            -19 -18 4 8 -16 hvcurveto
            -13 -40 rlineto
            -10 17 23 -6 26 hhcurveto
            100 41 78 123 13 hvcurveto
            29 260 rlineto
            140 43 -136 hlineto
            8 65 rlineto
            79 8 24 76 68 hhcurveto
            endchar
          </CharString>
          <CharString index="20">
            579 rmoveto
            66 21 63 64 3 hvcurveto
            -38 3 rlineto
            -50 -2 -15 -40 -34 -54 -23 93 -73 hhcurveto
            -67 -21 -62 -65 -3 hvcurveto
            38 -3 rlineto
            51 2 15 39 35 53 23 -93 74 hhcurveto
            return
          </CharString>
          <CharString index="21">
            20 0 45 247 39 276 44 hstemhm
            56 84 -28 52 -2 48 hintmask 00000000
            hintmask 11110000
            140 45 rmoveto
            4 vlineto
            hintmask 11100100
            45 45 25 48 81 vvcurveto
            24 -3 23 -4 22 vhcurveto
            155 39 hlineto
            hintmask 11101000
            -164 hlineto
            -14 50 -16 46 51 vvcurveto
            72 42 57 80 51 34 -26 -33 27 vhcurveto
            33 31 rlineto
            39 -31 -46 33 -69 hhcurveto
            -106 -67 -67 -106 -50 17 -48 14 -49 hvcurveto
            -23 hlineto
            -66 -3 rlineto
            -36 vlineto
            hintmask 11100100
            100 hlineto
            5 -23 3 -23 -23 vvcurveto
            -77 -33 -74 -73 -41 vhcurveto
            hintmask 11110000
            -31 376 45 vlineto
            endchar
          </CharString>
          <CharString index="22">
            572 rmoveto
            114 123 38 callgsubr
            114 -123 25 22 -116 143 rlineto
            -50 hlineto
            -116 -143 rlineto
            return
          </CharString>
          <CharString index="23">
            -178 -152 32 380 36 380 32 hstemhm
            122 49 4 73 hintmask 11110000
            23 -152 rmoveto
            36 hlineto
            75 37 27 102 hvcurveto
            73 -9 61 69 vvcurveto
            hintmask 11101000
            41 17 39 69 vhcurveto
            36 vlineto
            hintmask 11110000
            -69 -17 39 40 hvcurveto
            70 9 61 73 vvcurveto
            102 -37 27 -75 vhcurveto
            -36 -32 30 hlineto
            60 15 -32 -69 hvcurveto
            -64 -6 -55 -71 vvcurveto
            -60 13 -33 40 -12 vhcurveto
            -4 vlineto
            -40 -12 -13 -35 -58 -71 6 -55 -64 vvcurveto
            -69 -15 -32 -60 vhcurveto
            -30 hlineto
            endchar
          </CharString>
          <CharString index="24">
            20 212 40 166 40 192 -20 hstem
            36 416 vstem
            93 hmoveto
            38 hlineto
            25 212 rlineto
            147 hlineto
            -26 -212 rlineto
            39 hlineto
            25 212 rlineto
            91 40 -85 hlineto
            20 166 rlineto
            85 40 -81 hlineto
            25 192 rlineto
            -39 hlineto
            -25 -192 rlineto
            -146 hlineto
            25 192 rlineto
            -38 hlineto
            -26 -192 rlineto
            -91 -40 88 hlineto
            -21 -166 rlineto
            -87 -40 82 hlineto
            44 40 rmoveto
            20 166 rlineto
            147 hlineto
            -21 -166 rlineto
            endchar
          </CharString>
          <CharString index="25">
            -55 -201 45 552 97 hstemhm
            50 52 70 92 -66 48.02 hintmask 11110000
            218 396 rmoveto
            24 22 19 30 30 33 callsubr
            -30 -30 22 -19 24 hvcurveto
            -11 -597 rmoveto
            70 53 35 44 40 hvcurveto
            -31 28 rlineto
            -39 -33 -46 -23 -48 hhcurveto
            -75 -35 53 60 hvcurveto
            hintmask 11101000
            120 164 58 -22 164 vhcurveto
            -46 hlineto
            19 -150 -167 -60 -136 vvcurveto
            hintmask 11110000
            -88 59 -66 98 vhcurveto
            endchar
          </CharString>
          <CharString index="26">
            153 416 52 157 51 -39 39 hstemhm
            108 42 158 40 196 41 hintmask 10111100
            108 369 rmoveto
            42 268 106 39 -254 -39 106 hlineto
            200 -268 rmoveto
            40 156 hlineto
            -5 100 38 callgsubr
            81 -209 rlineto
            37 hlineto
            hintmask 11011100
            80 209 38 callgsubr
            -5 -100 rlineto
            -156 41 307 -56 vlineto
            -50 -124 -30 -84 rlineto
            -4 hlineto
            -30 84 rlineto
            hintmask 10111100
            -51 124 rlineto
            -56 hlineto
            endchar
          </CharString>
          <CharString index="27">
            -381 671 -20 hstem
            -165 408 vstem
            -165 -12 rmoveto
            41 hlineto
            367 683 rlineto
            -41 hlineto
            endchar
          </CharString>
          <CharString index="28">
            55 vstem
            96 hmoveto
            156 hlineto
            202 98 130 201 202 -98 126 -204 hvcurveto
            -154 hlineto
            53 -614 rmoveto
            569 97 vlineto
            173 78 -112 -171 -170 -78 -116 -173 hvcurveto
            return
          </CharString>
          <CharString index="29">
            12 -382 rmoveto
            -98 -57 39 60 32 18 36 42 29 hvcurveto
            -6 24 25 -2 11 hhcurveto
            100 hlineto
            71 37 -19 -52 -58 -67 -59 -106 hvcurveto
            endchar
          </CharString>
          <CharString index="30">
            20 0 45 518 35 -35 76 hstemhm
            233 51 hintmask 10110000
            83 hmoveto
            339 45 -138 594 -41 hlineto
            hintmask 11010000
            -31 -18 -41 -15 -53 -8 rrcurveto
            hintmask 10110000
            -35 115 -518 -150 vlineto
            endchar
          </CharString>
          <CharString index="31">
            12 callgsubr
            283 -12 rmoveto
            -5 callgsubr
            -65 96 -128 -57 -58 -33 -40 -48 hvcurveto
            3 92 rlineto
            206 -52 -718 43 vlineto
            5 49 rlineto
            2 hlineto
            -37 45 53 -24 45 hhcurveto
            -4 45 rmoveto
            -36 -51 16 44 -50 hvcurveto
            279 vlineto
            50 54 51 -41 callsubr
            return
          </CharString>
          <CharString index="32">
            574 rmoveto
            146 151 -38 34 -136 -159 rlineto
            return
          </CharString>
          <CharString index="33">
            -131 396 35 124 32 108 35 hstem
            31 42 191 39 vstem
            182 396 rmoveto
            47 34 17 17 28 hvcurveto
            -18 30 rlineto
            -16 -22 -31 -13 -33 hhcurveto
            -69 -43 49 75 -2 hvcurveto
            227 hlineto
            3 15 0 5 12 vvcurveto
            54 -26 89 -101 -80 -65 -64 -103 -108 67 -59 84 vhcurveto
            -109 191 rmoveto
            66 8 38 42 57 hhcurveto
            66 22 -58 -50 hvcurveto
            endchar
          </CharString>
          <CharString index="34">
            90 hmoveto
            -89 callgsubr
            return
          </CharString>
          <CharString index="35">
            53 265 hlineto
            197 394 -4 callgsubr
            -97 -203 -21 -48 -25 -46 -25 -48 rlinecurve
            -4 hlineto
            -24 48 -21 46 -23 48 -98 203 rcurveline
            -56 hlineto
            198 -394 rlineto
            endchar
          </CharString>
          <CharString index="36">
            -26 36 rlineto
            -30 -32 -43 -24 -51 hhcurveto
            -101 -68 83 124 123 74 86 96 46 34 -21 -29 31 hvcurveto
            29 36 rlineto
            30 -33 -43 28 -65 hhcurveto
            -118 -104 -92 -161 return
          </CharString>
          <CharString index="37">
            vstem
            96 hmoveto
            53 223 hlineto
            130 149 214 -372 rlineto
            60 hlineto
            -239 413 210 246 rlineto
            -63 hlineto
            -310 -360 rlineto
            -2 360 -53 hlineto
            return
          </CharString>
          <CharString index="38">
            53 vstem
            538 299 rmoveto
            196 -5 -92 60 -106 hhcurveto
            -70 -66 -40 -87 -28 hvcurveto
            -55 122 rlineto
            -56 hlineto
            77 -160 -76 -390 rlineto
            55 hlineto
            72 384 rlineto
            64 17 39 61 86 hhcurveto
            83 68 -48 -162 4 hvcurveto
            5 -202 -81 -92 -168 38 -6 -45 rcurveline
            198 -42 111 108 -6 235 rrcurveto
            return
          </CharString>
          <CharString index="39">
            18 callgsubr
            112 97 38 callgsubr
            112 -97 23 21 -111 113 rlineto
            -52 hlineto
            -111 -113 rlineto
            return
          </CharString>
          <CharString index="40">
            18 callgsubr
            137 113 -33 37 -127 -124 rlineto
            return
          </CharString>
          <CharString index="41">
            53.5 vstem
            498 319 rmoveto
            -1 29 rlineto
            121 -4 -64 81 -115 hhcurveto
            -262 hlineto
            5 -45 62 -515 204 10 184 74 -9 245 rlinecurve
            -330 -277 rmoveto
            -56 463 rlineto
            197 hlineto
            89 46 -73 -90 hvcurveto
            -23 vlineto
            8 -214 -149 -50 -135 -13 rrcurveto
            return
          </CharString>
          <CharString index="42">
            -26 callsubr
            19 -24 -24 -21 -19 -13 callgsubr
          </CharString>
          <CharString index="43">
            443 45 -377 hlineto
            373 583 rlineto
            31 -406 -46 340 vlineto
            -373 -582 rlineto
            return
          </CharString>
          <CharString index="44">
            596 rmoveto
            22 17 17 22 22 -17 17 -22 return
          </CharString>
          <CharString index="45">
            -17 -12 -17 -14 -35 callsubr
            16 -17 hvcurveto
            return
          </CharString>
          <CharString index="46">
            -161 228 44 hstem
            41 221 vstem
            41 228 rmoveto
            221 44 -221 hlineto
            endchar
          </CharString>
          <CharString index="47">
            -7 422 rmoveto
            -64 -56 53 78 80 54 49 66 66 55 -50 -79 -78 -56 -53 -65 hvcurveto
            return
          </CharString>
          <CharString index="48">
            -101 396 36 262 36 hstem
            32 44 207 44 vstem
            180 396 rmoveto
            80 67 62 105 106 -67 61 -80 -81 -67 -61 -106 -105 67 -62 81 hvcurveto
            36 vmoveto
            -63 -41 54 77 79 41 52 63 62 41 -52 -79 -77 -41 -54 -62 hvcurveto
            endchar
          </CharString>
          <CharString index="49">
            55 vstem
            271 550 rmoveto
            -166 hlineto
            -30 -145 -20 -112 23 -55 83 -20 rlinecurve
            17 39 -57 17 -13 43 19 87 rlinecurve
            20 101 rlineto
            116 hlineto
            101 48 -67 -133 hvcurveto
            -505 55 505 vlineto
            164 -1 -71 81 -124 hhcurveto
            return
          </CharString>
          <CharString index="50">
            44.5 hstem
            191.5 44 vstem
            190 -80 rmoveto
            47 hlineto
            -3 return
          </CharString>
          <CharString index="51">
            rmoveto
            17 11 15 17 -30 callgsubr
            hvcurveto
            endchar
          </CharString>
          <CharString index="52" raw="1">
            5e0a1f0b   
          </CharString>
          <CharString index="53">
            -63 454 258 hstem
            178.5 42 vstem
            133 454 rmoveto
            67 84 66 -84 29 22 -55 89 92 37 -11 32 -97 -24 -7 102 rlineto
            -35 hlineto
            -7 -103 -97 25 -11 -32 92 -37 -55 -89 rlineto
            endchar
          </CharString>
          <CharString index="54">
            vstem
            218 hmoveto
            124 7 107 78 10 205 18 218 rcurveline
            3 42 rlineto
            -422 -45 364 hlineto
            -19 -222 -13 -194 -85 -32 -93 -12 rlinecurve
            -149 -245 rmoveto
            55 554 -47 hlineto
            -8 -68 rlineto
            return
          </CharString>
          <CharString index="55">
            55 vstem
            50 hmoveto
            131 hlineto
            142 84 82 165 hvcurveto
            56 vlineto
            165 -84 82 -142 vhcurveto
            -131 -45 123 hlineto
            119 60 -67 -133 hvcurveto
            -59 vlineto
            -134 -60 -66 -119 vhcurveto
            -123 hlineto
            return
          </CharString>
          <CharString index="56">
            40 42 26 56 31 hvcurveto
            -32 22 rlineto
            -46 -24 -25 -17 -30 -57 -46 89 -77 hhcurveto
            -40 -42 -26 -58 -30 hvcurveto
            return
          </CharString>
          <CharString index="57">
            50 397 hlineto
            65 -4 62 -3 63 vhcurveto
            4 hlineto
            74 -132 270 -455 rlineto
            55 659 -50 -392 hlineto
            -65 4 -66 3 -65 vhcurveto
            -4 hlineto
            -74 133 -270 455 rlineto
            -55 hlineto
            endchar
          </CharString>
          <CharString index="58">
            54 vstem
            30 -13 rmoveto
            110 10 46 55 107 vvcurveto
            346 162 vlineto
            73 49 -35 -104 hvcurveto
            -366 54 365 vlineto
            136 -66 49 -100 vhcurveto
            -226 -396 hlineto
            1 -76 -27 -43 -82 -7 rrcurveto
            return
          </CharString>
          <CharString index="59">
            61 35 callgsubr
            41 279 54 53 vstem
            291 240 rmoveto
            29 419 -44 hlineto
            -137 -98 -58 -151 -150 103 -60 147 hvcurveto
            83 -320 rmoveto
            53 739 -53 hlineto
            endchar
          </CharString>
          <CharString index="60">
            20 620 50 hstem
            65 353 vstem
            65 289 rmoveto
            48 hlineto
            75 198 51 133 38 callgsubr
            51 -133 75 -198 rlineto
            49 hlineto
            -151 381 rlineto
            -51 hlineto
            endchar
          </CharString>
          <CharString index="61">
            -14 117 -4 callgsubr
            13 -117 rlineto
            return
          </CharString>
          <CharString index="62">
            15 -15 callsubr
            return
          </CharString>
          <CharString index="63">
            96 hmoveto
            53 326 343 -326 25 callgsubr
            -287 -343 287 -53 hlineto
            return
          </CharString>
          <CharString index="64">
            55 vstem
            409 hmoveto
            -34 callgsubr
            -234 -45 225 hlineto
            72 49 -35 -104 hvcurveto
            -346 -366 rmoveto
            55 336 -47 hlineto
            -8 -67 rlineto
            return
          </CharString>
          <CharString index="65">
            58 41 40 56 56 -41 40 -58 -58 -41 -40 -56 -56 41 -40 58 hvcurveto
            28 vmoveto
            -35 return
          </CharString>
          <CharString index="66">
            27 46 hhcurveto
            107 41 -85 -116 -129 -68 -86 -94 hvcurveto
            return
          </CharString>
          <CharString index="67">
            45 -6 callgsubr
            return
          </CharString>
          <CharString index="68">
            rmoveto
            -24 -22 -16 -29 -30 21 -15 25 4 3 0 1 4 hvcurveto
            -1 -55 -31 -42 -47 -24 15 -34 rcurveline
            64 32 44 60 75 vvcurveto
            47 -21 30 -34 vhcurveto
            endchar
          </CharString>
          <CharString index="69">
            193 -12 0 callgsubr
            48 return
          </CharString>
          <CharString index="70">
            -177 152 224 hstem
            40 205 vstem
            143 152 rmoveto
            52 50 43 69 68 -50 44 -52 -53 -50 -44 -68 -69 50 -43 53 hvcurveto
            endchar
          </CharString>
          <CharString index="71">
            rmoveto
            -23 -18 -18 -24 -26 18 -18 23 23 18 18 26 24 -18 18 -23 hvcurveto
            return
          </CharString>
          <CharString index="72">
            -16 12 -15 17 17 11 15 16 15 -11 return
          </CharString>
          <CharString index="73">
            31 -12 44 417 44 return
          </CharString>
          <CharString index="74">
            -178 -152 32 796 32 hstem
            146 40 vstem
            23 -152 rmoveto
            163 860 -163 -32 123 -796 -123 hlineto
            endchar
          </CharString>
          <CharString index="75">
            rmoveto
            52 481 -52 hlineto
            endchar
          </CharString>
          <CharString index="76">
            rmoveto
            140 90 79 84 77 -52 35 -108 hvcurveto
            return
          </CharString>
          <CharString index="77">
            -178 -152 32 796 32 hstem
            98 39 vstem
            98 -152 rmoveto
            162 32 -123 796 123 32 -162 hlineto
            endchar
          </CharString>
          <CharString index="78">
            522 62 15 callgsubr
            584 rmoveto
            -9 callgsubr
            -16 12 -16 17 17 11 16 16 14 -11 16 -17 hvcurveto
            endchar
          </CharString>
          <CharString index="79">
            605 -77 callgsubr
            return
          </CharString>
          <CharString index="80">
            104 39 82 66 7 hvcurveto
            return
          </CharString>
          <CharString index="81">
            24 22 19 29 31 -22 return
          </CharString>
          <CharString index="82">
            55 vstem
            146 hmoveto
            55 388 hlineto
            36 5 47 21 34 vhcurveto
            83 45 -251 -45 115 hlineto
            -18 -28 -10 -41 -48 vvcurveto
            return
          </CharString>
          <CharString index="83">
            -92 -161 -159 return
          </CharString>
          <CharString index="84">
            237 hmoveto
            53 613 208 46 -469 -46 208 hlineto
            return
          </CharString>
          <CharString index="85">
            569 rmoveto
            95 162 -39 21 -87 -168 rlineto
            168 -15 rmoveto
            95 162 -39 21 -86 -168 rlineto
            endchar
          </CharString>
          <CharString index="86">
            266 62 177 45 hstem
            return
          </CharString>
          <CharString index="87">
            55 vstem
            338 hmoveto
            -34 callgsubr
            -180 -45 171 hlineto
            72 49 -35 -104 hvcurveto
            return
          </CharString>
          <CharString index="88">
            -106 -160 870 hstem
            7 340 vstem
            305 -160 rmoveto
            42 hlineto
            -298 870 3 callsubr
          </CharString>
          <CharString index="89">
            145 -12 48 246 45 296 48 return
          </CharString>
          <CharString index="90">
            -106 -160 870 hstem
            9 340 vstem
            9 -160 rmoveto
            42 hlineto
            298 870 3 callsubr
          </CharString>
          <CharString index="91">
            -61 -11 -42 -53 -19 -18 5 4 -13 vhcurveto
            -11 -41 rlineto
            return
          </CharString>
          <CharString index="92">
            -11 15 -17 return
          </CharString>
          <CharString index="93">
            rmoveto
            25 callgsubr
            hlineto
            endchar
          </CharString>
          <CharString index="94">
            -17 -9 callgsubr
            return
          </CharString>
          <CharString index="95">
            hstemhm
            50 49 -28 51 -42 47 236 49 15 52 return
          </CharString>
          <CharString index="96">
            8 callsubr
            435 55 vstem
            return
          </CharString>
          <CharString index="97">
            hstem
            94 53 345 51 vstem
            return
          </CharString>
          <CharString index="98">
            -197 86 return
          </CharString>
          <CharString index="99">
            -87 -55 -74 -132 -133 55 -75 87 88 55 75 133 132 -55 74 -88 hvcurveto
            return
          </CharString>
          <CharString index="100">
            18 231 40 hstem
            41 398 vstem
            41 231 rmoveto
            398 40 -398 hlineto
            endchar
          </CharString>
          <CharString index="101">
            594 -2 callsubr
            return
          </CharString>
          <CharString index="102">
            505 45 hstem
            return
          </CharString>
          <CharString index="103">
            96 hmoveto
            194 hlineto
            149 97 65 127 91 -57 53 -84 15 hvcurveto
            4 vlineto
            return
          </CharString>
          <CharString index="104">
            rmoveto
            23 18 17 26 25 -18 17 -23 -23 -18 -17 -25 -26 18 -17 23 hvcurveto
            return
          </CharString>
          <CharString index="105">
            rmoveto
            -104 callgsubr
            return
          </CharString>
          <CharString index="106">
            21 -57 hhcurveto
            -114 -99 return
          </CharString>
          <CharString index="107">
            -237 15 29 callgsubr
            vstem
            119 97 30 callgsubr
            return
          </CharString>
          <CharString index="108">
            24 19 17 26 25 -19 17 -24 -24 -19 -17 -25 -26 19 -17 24 hvcurveto
            return
          </CharString>
          <CharString index="109">
            hstem
            57 52 255 52 vstem
            return
          </CharString>
          <CharString index="110">
            36 callsubr
            endchar
          </CharString>
          <CharString index="111">
            119 -10 rmoveto
            206 10 175 94 -9 244 -1 28 rcurveline
            return
          </CharString>
          <CharString index="112">
            22 callgsubr
            90 -215 rmoveto
            52 174 hlineto
            -1 return
          </CharString>
          <CharString index="113">
            rlineto
            55 -8 23 -14 -28 vvcurveto
            -30 -26 return
          </CharString>
          <CharString index="114">
            570 23 callgsubr
            return
          </CharString>
          <CharString index="115">
            hstem
            54 56 return
          </CharString>
          <CharString index="116">
            131 -55 75 -87 -88 -55 -75 -131 -134 55 -74 88 return
          </CharString>
          <CharString index="117">
            -2 hlineto
            -6 73 rlineto
            -43 hlineto
            endchar
          </CharString>
          <CharString index="118">
            -12 36 194 36 112 36 193 37 39 -20 hstem
            return
          </CharString>
          <CharString index="119">
            193 41 callgsubr
            435 55 vstem
            return
          </CharString>
          <CharString index="120">
            41 -35 -20 91 42 hstemhm
            return
          </CharString>
          <CharString index="121">
            hstem
            7 516 vstem
            return
          </CharString>
          <CharString index="122">
            36 228 36 return
          </CharString>
          <CharString index="123">
            -12 rmoveto
            41 hlineto
            367 682 3 callsubr
          </CharString>
          <CharString index="124">
            hstem
            90 52 return
          </CharString>
          <CharString index="125">
            -162 40 return
          </CharString>
          <CharString index="126">
            20 206 42 164 42 hstem
            34 414 vstem
            return
          </CharString>
          <CharString index="127">
            130 -10.75 45.57 return
          </CharString>
          <CharString index="128">
            8 callsubr
            376 50 vstem
            return
          </CharString>
          <CharString index="129">
            53 167.5 54 return
          </CharString>
          <CharString index="130">
            rmoveto
            -26 callsubr
            return
          </CharString>
          <CharString index="131">
            858 36 hstem
            return
          </CharString>
          <CharString index="132">
            157 -10 50 return
          </CharString>
          <CharString index="133">
            hvcurveto
            2 hlineto
            return
          </CharString>
          <CharString index="134">
            131 75 -44 -92 -102 -78 -46 -128 hvcurveto
            return
          </CharString>
          <CharString index="135">
            54 22 -77 77 hhcurveto
            return
          </CharString>
          <CharString index="136">
            44 393 44 hstem
            return
          </CharString>
          <CharString index="137">
            vstem
            -39 768 rmoveto
            25 24 -62 66 rlineto
            return
          </CharString>
          <CharString index="138">
            41 48 41 hstem
            40 403 vstem
            330 return
          </CharString>
          <CharString index="139">
            -40 callgsubr
            hstem
            return
          </CharString>
          <CharString index="140">
            -22 18 -24 -24 -22 -18 return
          </CharString>
          <CharString index="141">
            hstem
            67 91 vstem
            112 return
          </CharString>
          <CharString index="142">
            44 405 44 return
          </CharString>
          <CharString index="143">
            rlineto
            -42 hlineto
            return
          </CharString>
          <CharString index="144">
            hstem
            51 53 return
          </CharString>
          <CharString index="145">
            -49 callgsubr
            hstem
            51 return
          </CharString>
          <CharString index="146">
            0 46 220 62 177 45 hstem
            return
          </CharString>
          <CharString index="147">
            -25 -19 -25 -12 -40 -8 rrcurveto
            -30 84 return
          </CharString>
          <CharString index="148">
            42 hstem
            218 46 vstem
            218 return
          </CharString>
        <CharString name=".notdef">
          174 0 43 552 65 -44 44 hstemhm
          93 49 350 51 hintmask 10111000
          93 hmoveto
          450 660 -450 hlineto
          223 -285 rmoveto
          -54 92 -82 149 rlineto
          275 hlineto
          -83 -149 -52 -92 rlineto
          -178 -286 rmoveto
          hintmask 11011000
          506 vlineto
          143 -255 rlineto
          207 -251 rmoveto
          -141 251 141 255 rlineto
          -326 -552 rmoveto
          90 158 60 104 38 callgsubr
          58 -104 89 -158 rlineto
          endchar
        </CharString>
        <CharString name="A">
          -45 callgsubr
          14 callsubr
          466 hmoveto
          -106 callsubr
        </CharString>
        <CharString name="AE">
          349 0 45 167 44 70 46 241 46 hstem
          409 53 vstem
          462 45 rmoveto
          281 243 46 -243 241 292 46 -375 vlineto
          -360 -659 rlineto
          56 hlineto
          115 212 rlineto
          219 -212 355 45 hlineto
          -550 211 rmoveto
          70 129 121 229 rlineto
          4 -358 hlineto
          endchar
        </CharString>
        <CharString name="Aacute">
          -45 callgsubr
          14 callsubr
          381 818 rmoveto
          -33 37 -127 -124 23 -26 rlineto
          222 -705 rmoveto
          -106 callsubr
        </CharString>
        <CharString name="Abreve">
          -45 callgsubr
          50 37 hstem
          126 36 204 36 vstem
          264 -62 callgsubr
          202 -709 rmoveto
          -106 callsubr
        </CharString>
        <CharString name="Acircumflex">
          -45 callgsubr
          67 -20 96 37 14 callsubr
          262 802 rmoveto
          4 hlineto
          112 -97 23 21 -111 113 rlineto
          -52 hlineto
          -111 -113 23 -21 rlineto
          316 -705 rmoveto
          -106 callsubr
        </CharString>
        <CharString name="Adieresis">
          -45 callgsubr
          64 78 hstem
          126 36 callgsubr
          vstem
          165 -96 callsubr
          103 -723 rmoveto
          -106 callsubr
        </CharString>
        <CharString name="Agrave">
          -45 callgsubr
          14 callsubr
          307 731 rmoveto
          -127 124 -33 -37 137 -113 rlineto
          182 -705 rmoveto
          -106 callsubr
        </CharString>
        <CharString name="Amacron">
          -45 callgsubr
          82 40 14 callsubr
          390 781 rmoveto
          -252 -40 252 hlineto
          76 -741 rmoveto
          -106 callsubr
        </CharString>
        <CharString name="Aring">
          -45 callgsubr
          40 28 118 28 hstem
          175 32 112 34 vstem
          264 699 rmoveto
          1 callgsubr
          146 vmoveto
          30 25 -22 -37 -38 -25 -21 -30 -31 -26 21 38 37 26 22 31 hvcurveto
          202 -845 rmoveto
          -106 callsubr
        </CharString>
        <CharString name="Atilde">
          -45 callgsubr
          58 13 callsubr
          97 37 260 37 hintmask 11101110
          188 794 rmoveto
          28 callsubr
          -37 callgsubr
          hintmask 11011110
          -55 -32 -48 -65 -3 hvcurveto
          37 -3 rlineto
          hintmask 11101110
          46 4 21 28 29 hhcurveto
          278 -794 rmoveto
          -106 callsubr
        </CharString>
        <CharString name="B">
          118 0 9 callgsubr
          hintmask 11110100
          -4 callsubr
          hintmask 11111000
          -48 callgsubr
          hintmask 11110100
          27 callsubr
          endchar
        </CharString>
        <CharString name="Bethb">
          78 endchar
        </CharString>
        <CharString name="C">
          104 41 callgsubr
          vstem
          332 -12 -88 callgsubr
        </CharString>
        <CharString name="Ccaron">
          104 -12 0 callgsubr
          48 37 37 8 callsubr
          vstem
          296 -63 callgsubr
          147 -834 -88 callgsubr
        </CharString>
        <CharString name="Ccedilla">
          104 41 callgsubr
          vstem
          332 -12 -88 callgsubr
        </CharString>
        <CharString name="D">
          144 0 45 569 45 11 callgsubr
          348 -79 callsubr
          endchar
        </CharString>
        <CharString name="E">
          55 0 31 callgsubr
          vstem
          96 hmoveto
          -91 callgsubr
          endchar
        </CharString>
        <CharString name="Eacute">
          55 0 31 callgsubr
          vstem
          263 -67 callsubr
          -144 -731 rmoveto
          -91 callgsubr
          endchar
        </CharString>
        <CharString name="Ebreve">
          55 -47 callgsubr
          50 37 hstemhm
          96 53 -4 36 204 36 hintmask 00000000
          hintmask 11110110
          283 -62 callgsubr
          hintmask 11111000
          -187 -709 rmoveto
          -91 callgsubr
          endchar
        </CharString>
        <CharString name="Ecircumflex">
          55 -47 callgsubr
          67 -20 96 37 11 callgsubr
          vstem
          169 -68 callsubr
          -50 -726 rmoveto
          -91 callgsubr
          endchar
        </CharString>
        <CharString name="Edieresis">
          55 -47 callgsubr
          64 78 hstemhm
          96 53 -4 36 callgsubr
          hintmask 00000000
          hintmask 11110110
          184 -96 callsubr
          hintmask 11101000
          -286 -723 rmoveto
          -91 callgsubr
          endchar
        </CharString>
        <CharString name="Egrave">
          55 0 31 callgsubr
          vstem
          303 -46 callgsubr
          -70 -818 rmoveto
          -91 callgsubr
          endchar
        </CharString>
        <CharString name="Emacron">
          55 -47 callgsubr
          82 40 11 callgsubr
          vstem
          157 -28 callgsubr
          -61 -781 rmoveto
          -91 callgsubr
          endchar
        </CharString>
        <CharString name="Eogonek">
          55 -206 40 166 31 callgsubr
          180 44 vstem
          415 -206 rmoveto
          23 29 11 13 16 hvcurveto
          -17 30 rlineto
          -9 -14 -12 -5 -17 hhcurveto
          -25 -25 17 34 58 49 48 45 9 hvcurveto
          3 45 -321 281 261 46 -261 241 311 46 -364 -659 306 hlineto
          -39 -25 -34 -46 -52 vvcurveto
          -55 39 -28 47 vhcurveto
          endchar
        </CharString>
        <CharString name="Eth">
          165 0 44 286 36 248 44 hstem
          117 53 348 55 vstem
          271 658 rmoveto
          -154 -293 hlineto
          -81 -2 rlineto
          -33 81 -330 156 vlineto
          201 99 130 201 201 -99 126 -203 hvcurveto
          -5 -614 rmoveto
          -96 286 160 36 -160 248 96 hlineto
          174 78 -112 -171 -170 -78 -117 -174 hvcurveto
          endchar
        </CharString>
        <CharString name="Euro">
          -105 callsubr
        </CharString>
        <CharString name="Euro.001">
          -105 callsubr
        </CharString>
        <CharString name="Euro.heb">
          78 endchar
        </CharString>
        <CharString name="Euro.heb.001">
          78 endchar
        </CharString>
        <CharString name="Euro.lat">
          -105 callsubr
        </CharString>
        <CharString name="Euro.lat.001">
          -105 callsubr
        </CharString>
        <CharString name="F">
          18 313 45 255 46 11 callgsubr
          vstem
          96 hmoveto
          53 313 262 45 -262 255 310 46 -363 hlineto
          endchar
        </CharString>
        <CharString name="G">
          -18 callsubr
          21 callsubr
          340 -12 -100 callgsubr
        </CharString>
        <CharString name="Gcaron">
          -18 callsubr
          37 37 21 callsubr
          320 -63 callgsubr
          131 -834 -100 callgsubr
        </CharString>
        <CharString name="Gdotaccent">
          -18 callsubr
          49 85 8 callsubr
          193 86 97 50 vstem
          346 720 rmoveto
          1 callsubr
          -6 -732 -100 callgsubr
        </CharString>
        <CharString name="H">
          179 326 46 287 -20 11 callgsubr
          343 53 vstem
          -44 callsubr
          endchar
        </CharString>
        <CharString name="Hbar">
          212 326 46 122 36 hstem
          116 53 343 53 vstem
          639 530 rmoveto
          -74 128 -53 -128 -343 128 -53 -128 hlineto
          -80 -4 rlineto
          -32 80 -494 53 326 343 -326 53 494 74 vlineto
          -127 -122 rmoveto
          -343 122 343 hlineto
          endchar
        </CharString>
        <CharString name="I">
          3 callgsubr
          11 callgsubr
          vstem
          96 hmoveto
          25 callgsubr
          hlineto
          endchar
        </CharString>
        <CharString name="Iacute">
          3 callgsubr
          11 callgsubr
          vstem
          102 -67 callsubr
          17 -731 -14 callsubr
        </CharString>
        <CharString name="Icircumflex">
          3 callgsubr
          87 -20 96 37 11 callgsubr
          vstem
          8 -68 callsubr
          111 -726 -14 callsubr
        </CharString>
        <CharString name="Idieresis">
          3 callgsubr
          84 78 hstem
          -16 78 34 53 33 78 vstem
          23 723 rmoveto
          23 16 15 24 23 -16 16 -23 -74 callgsubr
          198 hmoveto
          22 17 15 24 23 -17 16 -22 -23 -16 -16 -23 -24 16 -15 23 hvcurveto
          -125 -723 -14 callsubr
        </CharString>
        <CharString name="Igrave">
          3 callgsubr
          11 callgsubr
          vstem
          142 -46 callgsubr
          91 -818 -14 callsubr
        </CharString>
        <CharString name="Imacron">
          3 callgsubr
          102 40 11 callgsubr
          vstem
          -4 -28 callgsubr
          100 -781 -14 callsubr
        </CharString>
        <CharString name="J">
          4 -12 48 623 -20 hstem
          319 53 vstem
          205 -12 rmoveto
          121 46 86 108 hvcurveto
          477 -53 -472 vlineto
          -105 -38 -46 -78 -54 -38 21 56 -33 vhcurveto
          -39 -27 rlineto
          -63 34 56 -35 76 hhcurveto
          endchar
        </CharString>
        <CharString name="K">
          100 35 callgsubr
          96 53 -70 callsubr
          endchar
        </CharString>
        <CharString name="L">
          8 0 45 614 -20 11 callgsubr
          vstem
          96 hmoveto
          353 45 -300 614 -53 hlineto
          endchar
        </CharString>
        <CharString name="Lslash">
          10 0 45 hstem
          100 53 vstem
          153 45 rmoveto
          233 vlineto
          205 107 -21 36 -184 -98 rlineto
          335 -53 -359 vlineto
          -98 -51 21 -36 77 42 rlineto
          -254 354 45 vlineto
          endchar
        </CharString>
        <CharString name="M">
          248 71 63 467 58 hstem
          96 48 419 51 vstem
          96 hmoveto
          48 420 hlineto
          54 -3 71 -3 56 vhcurveto
          4 hlineto
          52 -148 139 -382 rlineto
          43 hlineto
          139 382 51 148 38 callgsubr
          -3 -56 -4 -71 -54 vvcurveto
          -420 51 659 -72 vlineto
          -135 -380 -17 -48 -15 -49 -17 -48 rlinecurve
          -4 hlineto
          -51 145 -135 380 rlineto
          -72 hlineto
          endchar
        </CharString>
        <CharString name="N">
          176 0 71 516 72 hstem
          96 50 346 50 vstem
          96 hmoveto
          -50 callsubr
        </CharString>
        <CharString name="Ntilde">
          176 0 71 516 72 58 13 callsubr
          96 50 11 37 260 37 1 50 hintmask 0000000000000000
          hintmask 0110111100000000
          401 717 rmoveto
          -37 callgsubr
          hintmask 0101111010000000
          -22 callgsubr
          hintmask 0110111100000000
          28 callsubr
          hintmask 1110110010000000
          -305 -717 rmoveto
          -50 callsubr
        </CharString>
        <CharString name="O">
          12 callsubr
          327 -12 rmoveto
          -107 callsubr
          endchar
        </CharString>
        <CharString name="OE">
          374 -47 callgsubr
          8 callsubr
          324 53 vstem
          367 hmoveto
          422 45 -302 281 242 46 -242 241 292 46 -410 hlineto
          -207 -108 -126 -202 -201 108 -130 205 hvcurveto
          7 45 rmoveto
          -180 -84 115 171 171 84 112 180 hvcurveto
          60 -569 hlineto
          endchar
        </CharString>
        <CharString name="Oacute">
          12 callsubr
          307 -67 callsubr
          43 -743 rmoveto
          -107 callsubr
          endchar
        </CharString>
        <CharString name="Obreve">
          -38 callsubr
          38 37 8 callsubr
          79 36 204 36 80 55 vstem
          327 -62 callgsubr
          -721 vmoveto
          -107 callsubr
          endchar
        </CharString>
        <CharString name="Ocircumflex">
          -38 callsubr
          55 -20 96 37 -11 callsubr
          213 -68 callsubr
          137 -738 rmoveto
          -107 callsubr
          endchar
        </CharString>
        <CharString name="Odieresis">
          -38 callsubr
          52 78 8 callsubr
          79 36 callgsubr
          80 55 vstem
          228 -96 callsubr
          -99 -735 rmoveto
          -107 callsubr
          endchar
        </CharString>
        <CharString name="Ograve">
          12 callsubr
          347 -46 callgsubr
          117 -830 rmoveto
          -107 callsubr
          endchar
        </CharString>
        <CharString name="Omacron">
          -38 callsubr
          70 40 -11 callsubr
          201 -28 callgsubr
          126 -793 rmoveto
          -107 callsubr
          endchar
        </CharString>
        <CharString name="Oslash">
          193 -12 0 callgsubr
          47 -11 -20 hstemhm
          58 55 435 56 hintmask 00000000
          hintmask 10111000
          534 571 rmoveto
          66 88 rlineto
          hintmask 11011000
          -32 23 -61 -81 rlineto
          45 -47 -60 24 -69 hhcurveto
          -160 -113 -130 -209 -97 25 -82 42 -58 hvcurveto
          -70 -94 32 -24 64 86 rlineto
          -48 47 62 -26 71 hhcurveto
          159 114 134 209 hvcurveto
          hintmask 10111000
          100 -26 82 -44 58 vhcurveto
          hintmask 11011000
          -421 -240 rmoveto
          180 87 112 131 58 50 -22 -41 37 vhcurveto
          -317 -422 rlineto
          -30 50 -16 65 78 vvcurveto
          218 -295 rmoveto
          -60 -51 24 44 -37 hvcurveto
          317 423 rlineto
          31 -50 17 -66 -80 vvcurveto
          -179 -87 -116 -130 vhcurveto
          endchar
        </CharString>
        <CharString name="Otilde">
          -38 callsubr
          46 13 callsubr
          54 56 50 37 260 37 51 55 hintmask 1110111110000000
          404 717 rmoveto
          -37 callgsubr
          hintmask 1101111110000000
          -22 callgsubr
          hintmask 1110111110000000
          28 callsubr
          -77 -729 rmoveto
          -107 callsubr
          endchar
        </CharString>
        <CharString name="P">
          90 279 44 291 45 11 callgsubr
          303 54 vstem
          96 hmoveto
          53 279 121 40 callgsubr
          -91 49 -149 hvcurveto
          -170 hlineto
          53 -336 rmoveto
          291 105 vlineto
          133 65 -34 -107 -105 -63 -45 -131 hvcurveto
          endchar
        </CharString>
        <CharString name="Q">
          193 -157 47 100 43 590 48 -11 callsubr
          594 -101 rmoveto
          -5 -17 -21 -4 -29 hhcurveto
          -80 -60 35 65 -30 hvcurveto
          144 15 99 131 195 vvcurveto
          209 -113 131 -160 -159 -114 -131 -209 -196 100 -130 145 -16 vhcurveto
          -84 33 77 -62 113 hhcurveto
          34 32 6 6 17 hvcurveto
          -495 476 rmoveto
          180 87 112 130 131 87 -112 -180 -180 -87 -118 -131 -130 -87 118 180 vhcurveto
          endchar
        </CharString>
        <CharString name="R">
          86 298 44 272 45 11 callgsubr
          304 54 vstem
          521 hmoveto
          -179 302 rlineto
          101 15 64 61 105 vvcurveto
          128 -88 48 -132 vhcurveto
          -191 -659 53 298 136 hlineto
          174 -298 rlineto
          -310 342 rmoveto
          272 126 vlineto
          114 64 -35 -96 -96 -64 -45 -114 hvcurveto
          endchar
        </CharString>
        <CharString name="S">
          61 -12 24 callgsubr
          296 54 vstem
          270 -12 -102 callsubr
          endchar
        </CharString>
        <CharString name="Sacute">
          61 -12 24 callgsubr
          296 54 vstem
          252 -67 callsubr
          41 -743 -102 callsubr
          endchar
        </CharString>
        <CharString name="Scaron">
          61 -12 0 callgsubr
          48 37 37 hstem
          80 53 296 54 vstem
          246 -63 callgsubr
          135 -834 -102 callsubr
          endchar
        </CharString>
        <CharString name="T">
          65 613 46 hstem
          237 53 vstem
          -23 callsubr
          endchar
        </CharString>
        <CharString name="Thorn">
          105 163 44 291 44 -44 161 hstemhm
          96 53 313 54 hintmask 11011000
          96 hmoveto
          53 163 131 40 callgsubr
          -89 48 -147 hvcurveto
          -131 hlineto
          hintmask 10111000
          117 -53 vlineto
          53 -452 rmoveto
          hintmask 11011000
          291 119 vlineto
          131 63 -34 -107 -106 -63 -44 -131 hvcurveto
          endchar
        </CharString>
        <CharString name="U">
          -21 callgsubr
          -10 callsubr
          318 -12 -98 callgsubr
        </CharString>
        <CharString name="Uacute">
          -21 callgsubr
          -10 callsubr
          297 -67 callsubr
          44 -743 -98 callgsubr
        </CharString>
        <CharString name="Ucircumflex">
          -21 callgsubr
          87 -20 96 37 -10 callsubr
          203 -68 callsubr
          138 -738 -98 callgsubr
        </CharString>
        <CharString name="Udieresis">
          -21 callgsubr
          84 78 hstem
          94 53 32 36 callgsubr
          37 51 vstem
          218 -96 callsubr
          -98 -735 -98 callgsubr
        </CharString>
        <CharString name="Ugrave">
          -21 callgsubr
          -10 callsubr
          337 -46 callgsubr
          118 -830 -98 callgsubr
        </CharString>
        <CharString name="Umacron">
          -21 callgsubr
          102 40 -10 callsubr
          191 -28 callgsubr
          127 -793 -98 callgsubr
        </CharString>
        <CharString name="V">
          33 0 59 600 -20 hstem
          4 488 -43 callgsubr
          endchar
        </CharString>
        <CharString name="W">
          311 0 62 528 69 hstem
          27 717 vstem
          175 hmoveto
          59 hlineto
          115 442 11 51 13 46 12 51 rlinecurve
          4 hlineto
          11 -51 11 -46 12 -51 116 -442 rcurveline
          60 hlineto
          145 659 rlineto
          -51 hlineto
          -81 -383 -14 -71 -13 -72 -15 -71 rlinecurve
          -4 hlineto
          -51 214 -101 383 rlineto
          -53 hlineto
          -101 -383 -17 -71 -17 -72 -15 -71 rlinecurve
          -4 hlineto
          -15 71 -15 72 -14 71 -81 383 rcurveline
          -55 hlineto
          endchar
        </CharString>
        <CharString name="X">
          26 35 callgsubr
          17 454 vstem
          17 hmoveto
          55 hlineto
          111 198 55 104 38 callgsubr
          23 -40 19 -32 18 -32 111 -198 rcurveline
          58 hlineto
          -196 338 183 321 rlineto
          -55 hlineto
          -105 -190 -17 -30 -12 -24 -19 -37 rlinecurve
          -4 hlineto
          -21 37 -14 24 -18 30 -105 190 rcurveline
          -58 hlineto
          183 -318 rlineto
          endchar
        </CharString>
        <CharString name="Y">
          -10 35 callgsubr
          200 53 vstem
          200 hmoveto
          -72 callsubr
        </CharString>
        <CharString name="Yacute">
          -10 35 callgsubr
          200 53 vstem
          206 -67 callsubr
          17 -731 rmoveto
          -72 callsubr
        </CharString>
        <CharString name="Ydieresis">
          -10 19 callgsubr
          84 78 hstem
          88 78 34 53 33 78 vstem
          127 -96 callsubr
          -125 -723 rmoveto
          -72 callsubr
        </CharString>
        <CharString name="Z">
          77 0 45 568 46 hstem
          49 443 vstem
          49 hmoveto
          -64 callsubr
          endchar
        </CharString>
        <CharString name="ZWJ">
          24 callsubr
          -150 34 233 34 vstem
          -150 785 rmoveto
          34 73 233 -73 34 109 -301 hlineto
          endchar
        </CharString>
        <CharString name="ZWNJ">
          767 217 hstem
          -104 207 vstem
          -81 767 rmoveto
          81 81 79 -80 24 24 -79 83 79 82 -24 25 -79 -82 -81 84 -23 -27 78 -82 -78 -83 rlineto
          endchar
        </CharString>
        <CharString name="Zcaron">
          77 0 45 568 46 49 37 hstem
          49 443 vstem
          253 -63 callgsubr
          -93 -822 rmoveto
          -64 callsubr
          endchar
        </CharString>
        <CharString name="a">
          -34 callsubr
          2 callsubr
          197 -12 -107 callgsubr
          endchar
        </CharString>
        <CharString name="a.sups">
          -123 -78 callgsubr
        </CharString>
        <CharString name="aacute">
          -3 callgsubr
          238 -75 callsubr
          -13 -612 -107 callgsubr
          endchar
        </CharString>
        <CharString name="abreve">
          -34 callsubr
          77 -10 callgsubr
          57 52 5 36 214 52 -38 36 hintmask 0000000000000000
          hintmask 1111001010000000
          264 7 callsubr
          hintmask 1110101010000000
          -85 callgsubr
          hintmask 1111001010000000
          -26 callgsubr
          hintmask 1110110100000000
          -67 -582 -107 callgsubr
          endchar
        </CharString>
        <CharString name="acircumflex">
          -34 callsubr
          202 42 2 callsubr
          148 -85 callsubr
          74 -606 -107 callgsubr
          endchar
        </CharString>
        <CharString name="acute">
          74 725 -15 callgsubr
          214 174 vstem
          242 -75 callsubr
          endchar
        </CharString>
        <CharString name="acutecomb">
          725 -15 callgsubr
          -54 174 vstem
          -26 -75 callsubr
          endchar
        </CharString>
        <CharString name="acutecomb.cap">
          705 150 hstem
          -43 160 vstem
          -20 -67 callsubr
          endchar
        </CharString>
        <CharString name="adieresis">
          -34 callsubr
          103 78 hstemhm
          57 52 26 78 102 78 -29 52 hintmask 00000000
          hintmask 11111100
          174 -98 callsubr
          hintmask 11010010
          -157 -608 -107 callgsubr
          endchar
        </CharString>
        <CharString name="ae">
          322 -12 44 200 38 180 43 hstem
          64 52 250 49 284 48 vstem
          204 -12 rmoveto
          61 77 37 61 64 hvcurveto
          -50 35 51 -48 85 hhcurveto
          70 41 23 25 39 hvcurveto
          -21 38 rlineto
          -25 -36 -36 -17 -51 hhcurveto
          -95 -72 83 117 -1 hvcurveto
          329 hlineto
          2 12 1 12 13 vvcurveto
          141 -66 83 -114 -70 -61 -45 -71 -35 vhcurveto
          70 -17 -46 46 -77 hhcurveto
          -72 -66 -37 -25 -36 hvcurveto
          23 -37 rlineto
          24 33 55 31 58 hhcurveto
          92 20 -75 -72 -2 hvcurveto
          -205 -23 -97 -52 -107 vvcurveto
          -89 63 -43 77 vhcurveto
          211 282 rmoveto
          107 10 64 73 77 hhcurveto
          83 50 -61 -119 hvcurveto
          -484 -238 rmoveto
          -54 -45 25 67 74 69 44 181 23 hvcurveto
          -27 vlineto
          1 -43 7 -46 13 -28 rrcurveto
          -57 -52 -70 -32 -50 hhcurveto
          endchar
        </CharString>
        <CharString name="agrave">
          -3 callgsubr
          290 -54 callgsubr
          53 -737 -107 callgsubr
          endchar
        </CharString>
        <CharString name="alphalatin">
          16 callgsubr
          250 -12 rmoveto
          63 54 35 39 39 26 callsubr
          -48 3 14 -26 40 hhcurveto
          15 8 2 3 9 hvcurveto
          -4 42 rlineto
          -2 -10 -4 0 -3 hhcurveto
          -12 -8 9 21 hvcurveto
          418 -44 vlineto
          -4 -46 rlineto
          -2 hlineto
          37 -45 -40 21 -57 hhcurveto
          -113 -100 -98 -155 -162 79 -90 120 hvcurveto
          9 45 rmoveto
          -99 -55 81 126 119 71 90 92 46 42 -17 -43 48 hvcurveto
          -279 vlineto
          -50 -48 -46 -27 -51 hhcurveto
          endchar
        </CharString>
        <CharString name="amacron">
          -34 callsubr
          112 40 2 callsubr
          139 -28 callsubr
          58 -657 -107 callgsubr
          endchar
        </CharString>
        <CharString name="ampersand">
          -95 callsubr
        </CharString>
        <CharString name="ampersand.lat">
          -95 callsubr
        </CharString>
        <CharString name="approxequal">
          20 162 41 48 41 76 31 callsubr
          368 rmoveto
          -51 callsubr
          31 -20 rlineto
          46 24 13 callgsubr
          -206 vmoveto
          -51 callsubr
          31 -20 rlineto
          46 24 13 callgsubr
          endchar
        </CharString>
        <CharString name="aring">
          -34 callsubr
          56 28 136 28 hstemhm
          57 52 56 36 127 35 1 52 hintmask 00000000
          hintmask 11111110
          264 549 rmoveto
          -42 callsubr
          -28 27 41 41 28 27 35 35 29 -27 -41 -41 -29 -27 -35 hvcurveto
          -67 -589 rmoveto
          hintmask 11111101
          62 58 34 40 48 26 callsubr
          6 -62 rlineto
          43 305 hlineto
          106 -41 82 -115 -78 -66 -37 -25 -36 vhcurveto
          22 -37 rlineto
          24 33 55 31 64 hhcurveto
          91 21 -75 -72 -2 hvcurveto
          -212 -23 -95 -52 -106 vvcurveto
          hintmask 11111110
          -90 63 -43 77 vhcurveto
          10 44 rmoveto
          -54 -44 25 67 hvcurveto
          hintmask 11111101
          74 65 44 190 23 vhcurveto
          -159 vlineto
          hintmask 11111110
          -48 -57 -46 -26 -54 hhcurveto
          endchar
        </CharString>
        <CharString name="asciicircum">
          -47 callsubr
        </CharString>
        <CharString name="asciicircum.lat">
          -47 callsubr
        </CharString>
        <CharString name="asciitilde">
          20 265 31 callsubr
          265 rmoveto
          -51 callsubr
          32 -20 rlineto
          46 23 13 callgsubr
          endchar
        </CharString>
        <CharString name="asterisk">
          -54 callsubr
        </CharString>
        <CharString name="asterisk.lat">
          -54 callsubr
        </CharString>
        <CharString name="at">
          -100 callsubr
        </CharString>
        <CharString name="at.lat">
          -100 callsubr
        </CharString>
        <CharString name="atilde">
          -34 callsubr
          86 40 53 40 hstemhm
          57 52 -10 38 227 52 -25 38 hintmask 00000000
          hintmask 11110101
          339 -87 callsubr
          hintmask 11111010
          -142 -591 -107 callgsubr
          endchar
        </CharString>
        <CharString name="b">
          82 -12 -76 callsubr
          endchar
        </CharString>
        <CharString name="backslash">
          -19 callsubr
        </CharString>
        <CharString name="backslash.lat">
          -19 callsubr
        </CharString>
        <CharString name="bar">
          -233 750 -20 hstem
          94 41 vstem
          94 -250 rmoveto
          41 1000 -41 hlineto
          endchar
        </CharString>
        <CharString name="braceleft">
          -83 callgsubr
        </CharString>
        <CharString name="braceleft.lat">
          -83 callgsubr
        </CharString>
        <CharString name="braceright">
          -84 callsubr
        </CharString>
        <CharString name="braceright.lat">
          -84 callsubr
        </CharString>
        <CharString name="bracketleft">
          -30 callsubr
        </CharString>
        <CharString name="bracketleft.lat">
          -30 callsubr
        </CharString>
        <CharString name="bracketright">
          -33 callsubr
        </CharString>
        <CharString name="bracketright.lat">
          -33 callsubr
        </CharString>
        <CharString name="breve">
          74 570 -10 callgsubr
          118 15 callsubr
          hintmask 10111000
          268 570 rmoveto
          hintmask 11011000
          -27 callsubr
          hintmask 10111000
          -85 callgsubr
          -26 callgsubr
          endchar
        </CharString>
        <CharString name="brokenbar">
          -233 668 -20 hstem
          94 41 vstem
          94 668 rmoveto
          -367 vlineto
          -466 41 360 vlineto
          473 vlineto
          endchar
        </CharString>
        <CharString name="bullet">
          -37 callsubr
        </CharString>
        <CharString name="bullet.lat">
          -37 callsubr
        </CharString>
        <CharString name="c">
          -12 32 callsubr
          51 53 vstem
          270 -12 rmoveto
          61 52 26 37 42 hvcurveto
          -71 callsubr
          -159 94 -93 125 hvcurveto
          endchar
        </CharString>
        <CharString name="caron">
          74 573 43 hstem
          127 282 vstem
          243 -86 callgsubr
          endchar
        </CharString>
        <CharString name="ccaron">
          -12 -40 callgsubr
          80 43 37 callsubr
          vstem
          245 -86 callgsubr
          141 -728 rmoveto
          61 52 26 37 42 hvcurveto
          -71 callsubr
          -159 94 -93 125 hvcurveto
          endchar
        </CharString>
        <CharString name="ccedilla">
          -12 -220 32 177 44 -6 callgsubr
          37 callsubr
          190 44 vstem
          267 -65 rmoveto
          23 54 52 5 46 24 37 33 rlinecurve
          -71 callsubr
          -151 85 -91 116 -9 hvcurveto
          -36 -75 6 callsubr
          -16 -86 -6 vhcurveto
          7 -32 rlineto
          20 callgsubr
          endchar
        </CharString>
        <CharString name="cedilla">
          74 -220 32 hstem
          294 44 vstem
          189 -220 rmoveto
          20 callgsubr
          29 67 rlineto
          -38 hlineto
          -42 -88 6 callsubr
          -16 -86 -6 vhcurveto
          endchar
        </CharString>
        <CharString name="cent">
          -84 callgsubr
        </CharString>
        <CharString name="cent.heb">
          78 endchar
        </CharString>
        <CharString name="cent.lat">
          -84 callgsubr
        </CharString>
        <CharString name="chi">
          -3 -191 684 hstem
          10 453 vstem
          60 -191 rmoveto
          169 309 38 callgsubr
          181 -309 49 15 -206 339 173 318 rlineto
          -55 hlineto
          -142 -270 rlineto
          -4 hlineto
          -163 282 -51 -15 189 -315 -194 -342 rlineto
          endchar
        </CharString>
        <CharString name="circledotted">
          127 -12 67 -40 67 15 68 42 67 43 68 1 14 -1 67 -45 68 hstemhm
          51 64 -37 64 15 63 43 64 -49 65 26 63 -51 63 -24 63 -36 64 -37 65 hintmask 000000000000000000000000
          hintmask 000000010000100000000000
          310 489 rmoveto
          -17 -15 -12 -22 -21 15 -13 17 19 14 13 21 22 -14 12 -19 hvcurveto
          hintmask 000000100010000000000000
          -122 -23 rmoveto
          -17 -14 -10 -24 -20 14 -13 17 19 13 13 20 24 -14 10 -18 hvcurveto
          hintmask 000001000000001000000000
          224 -80 rmoveto
          hintmask 000001000000000100000000
          6 6 1 3 4 hvcurveto
          -5 -6 -3 -7 -10 vvcurveto
          -21 15 -13 16 20 12 13 21 21 -14 12 -18 vhcurveto
          hintmask 000001000000001000000000
          -5 -6 -2 -2 -4 hvcurveto
          5 6 3 8 10 vvcurveto
          22 -14 11 -18 -17 -14 -11 -22 -20 14 -14 17 vhcurveto
          hintmask 000010000100000000000000
          -303 -1 rmoveto
          -17 -14 -11 -22 -22 14 -13 17 20 13 13 22 22 -14 11 -19 hvcurveto
          hintmask 000100001000000001000000
          6 -144 rmoveto
          22 -14 11 -20 -16 -14 -11 -22 -22 14 -12 16 20 14 12 22 vhcurveto
          392 33 rmoveto
          -19 -14 -11 -22 -22 14 -12 19 19 13 12 22 22 -16 11 -16 hvcurveto
          hintmask 001000000100000010000000
          -398 -109 rmoveto
          -17 -14 -12 -22 -21 14 -13 17 20 13 13 21 22 -14 12 -19 hvcurveto
          370 hmoveto
          -17 -15 -12 -22 -21 15 -13 17 20 12 13 21 22 -14 12 -18 hvcurveto
          hintmask 010000000010010000000000
          -291 -83 rmoveto
          -17 -14 -11 -20 -23 14 -13 17 19 13 13 23 20 -14 11 -18 hvcurveto
          212 hmoveto
          -17 -14 -11 -20 -23 14 -13 17 20 12 13 23 20 -14 11 -18 hvcurveto
          hintmask 100000000001000000000000
          -106 -27 rmoveto
          -17 -14 -12 -21 -22 14 -12 17 19 14 12 22 21 -14 12 -19 hvcurveto
          endchar
        </CharString>
        <CharString name="circumflex">
          74 695 42 hstem
          127 282 vstem
          152 -85 callsubr
          endchar
        </CharString>
        <CharString name="colon">
          -237 -12 98 280 97 34 callsubr
          366 -35 callgsubr
          -378 vmoveto
          -65 callsubr
        </CharString>
        <CharString name="comma">
          -237 -4 90 hstem
          127 44 vstem
          116 86 -39 callsubr
        </CharString>
        <CharString name="copyright">
          -95 callgsubr
        </CharString>
        <CharString name="copyright.lat">
          -95 callgsubr
        </CharString>
        <CharString name="currency">
          20 137 41 302 42 hstem
          58 50 267 50 vstem
          60 112 rmoveto
          65 68 rlineto
          -28 32 41 -15 43 hhcurveto
          42 42 15 28 31 hvcurveto
          67 -68 29 31 -65 67 rlineto
          23 32 15 40 46 vvcurveto
          48 -15 41 -23 32 vhcurveto
          65 68 -29 31 -67 -69 rlineto
          27 -32 -41 16 -42 hhcurveto
          -43 -41 -16 -27 -31 hvcurveto
          -66 69 -30 -31 65 -68 rlineto
          -24 -32 -13 -41 -48 vvcurveto
          -46 13 -40 24 -32 vhcurveto
          -65 -67 rlineto
          211 35 rmoveto
          -72 -61 61 89 90 61 62 72 73 61 -62 -90 -89 -61 -61 -73 hvcurveto
          endchar
        </CharString>
        <CharString name="d">
          84 -40 callgsubr
          37 callgsubr
          hstem
          51 54 299 -94 callgsubr
          endchar
        </CharString>
        <CharString name="dagger">
          -35 515 -57 callsubr
          597 -70 callgsubr
          rlineto
          endchar
        </CharString>
        <CharString name="dagger.lat">
          -35 515 -57 callsubr
          597 -70 callgsubr
          rlineto
          endchar
        </CharString>
        <CharString name="daggerdbl">
          -80 callgsubr
        </CharString>
        <CharString name="daggerdbl.lat">
          -80 callgsubr
        </CharString>
        <CharString name="degree">
          -59 callgsubr
        </CharString>
        <CharString name="degree.lat">
          -59 callgsubr
        </CharString>
        <CharString name="dieresis">
          74 596 78 hstem
          139 78 102 78 vstem
          178 -63 callsubr
          -22 -17 -17 -22 -22 17 -17 22 -81 callgsubr
          endchar
        </CharString>
        <CharString name="divide">
          20 107 85 117 42 116 85 hstem
          200 82 vstem
          241 467 -3 callsubr
          -207 -158 rmoveto
          -17 callgsubr
          207 -244 -3 callsubr
          endchar
        </CharString>
        <CharString name="dollar">
          -79 callgsubr
        </CharString>
        <CharString name="dollar.heb">
          78 endchar
        </CharString>
        <CharString name="dollar.lat">
          -79 callgsubr
        </CharString>
        <CharString name="dotaccent">
          74 594 86 hstem
          227 82 vstem
          268 -6 callsubr
          endchar
        </CharString>
        <CharString name="dotbelowcomb">
          -9 callsubr
          hstem
          -41 82 vstem
          -197 vmoveto
          -104 callgsubr
          endchar
        </CharString>
        <CharString name="dotlessi">
          -230 0 481 17 callsubr
          vstem
          90 hmoveto
          52 481 -52 hlineto
          endchar
        </CharString>
        <CharString name="dotlessj">
          -243 -227 44 hstem
          92 51 vstem
          30 -227 rmoveto
          79 34 49 95 hvcurveto
          564 -51 -561 vlineto
          -16 callsubr
          -6 15 25 -6 23 hhcurveto
          endchar
        </CharString>
        <CharString name="e">
          23 -12 38 callsubr
          50 299 48 vstem
          448 270 -106 callgsubr
          endchar
        </CharString>
        <CharString name="e.sups">
          -74 callsubr
        </CharString>
        <CharString name="eacute">
          -7 callgsubr
          383 725 rmoveto
          -38 34 -136 -159 28 -26 rlineto
          211 -304 -106 callgsubr
          endchar
        </CharString>
        <CharString name="ebreve">
          23 -12 -49 callgsubr
          77 -10 callgsubr
          51 50 12 15 callsubr
          -13 48 hintmask 0000000000000000
          hintmask 1111101110000000
          263 7 callsubr
          hintmask 1111011110000000
          -85 callgsubr
          hintmask 1111101110000000
          -26 callgsubr
          hintmask 1111011001000000
          185 -300 -106 callgsubr
          endchar
        </CharString>
        <CharString name="ecircumflex">
          23 -12 -49 callgsubr
          202 42 2 callgsubr
          261 695 rmoveto
          4 hlineto
          114 -123 25 22 -116 143 rlineto
          -50 hlineto
          -116 -143 25 -22 rlineto
          301 -302 -106 callgsubr
          endchar
        </CharString>
        <CharString name="edieresis">
          23 -12 -49 callgsubr
          103 78 hstemhm
          51 50 33 78 102 78 8 48 hintmask 11111101
          173 -63 callsubr
          -23 -16 -17 -22 -22 16 -17 23 hvcurveto
          hintmask 11111111
          -91 callsubr
          hintmask 11111101
          95 -326 -106 callgsubr
          endchar
        </CharString>
        <CharString name="egrave">
          -7 callgsubr
          317 600 rmoveto
          -136 159 -38 -34 146 -151 rlineto
          159 -304 -106 callgsubr
          endchar
        </CharString>
        <CharString name="eight">
          -102 callgsubr
        </CharString>
        <CharString name="eight.heb">
          -102 callgsubr
        </CharString>
        <CharString name="eight.lat">
          -102 callgsubr
        </CharString>
        <CharString name="eight.pnumheb">
          20 endchar
        </CharString>
        <CharString name="eight.pnumlat">
          20 endchar
        </CharString>
        <CharString name="ellipsis">
          537 -12 97 hstem
          120 92 242 92 242 92 vstem
          166 -12 rmoveto
          -31 callgsubr
          334 hmoveto
          -31 callgsubr
          334 hmoveto
          -31 callgsubr
          endchar
        </CharString>
        <CharString name="emacron">
          23 -12 -49 callgsubr
          112 40 2 callgsubr
          388 645 rmoveto
          -250 -40 250 hlineto
          60 -335 -106 callgsubr
          endchar
        </CharString>
        <CharString name="emdash">
          -12 callgsubr
        </CharString>
        <CharString name="emdash.lat">
          -12 callgsubr
        </CharString>
        <CharString name="endash">
          -7 callsubr
        </CharString>
        <CharString name="endash.lat">
          -7 callsubr
        </CharString>
        <CharString name="eogonek">
          23 -204 39 153 38 callsubr
          52 170 42 85 48 vstem
          356 -204 rmoveto
          22 29 11 14 16 hvcurveto
          -17 28 rlineto
          -9 -13 -12 -5 -17 hhcurveto
          -26 -23 17 34 43 27 43 86 64 hvcurveto
          -20 37 rlineto
          -25 -36 -41 -17 -51 hhcurveto
          -105 -70 83 118 -2 hvcurveto
          342 hlineto
          2 12 1 13 13 vvcurveto
          141 -70 82 -116 -109 -102 -96 -157 -158 100 -94 124 21 19 2 7 20 vhcurveto
          -27 -24 -35 -45 -49 vvcurveto
          -56 36 -27 47 vhcurveto
          -253 477 rmoveto
          111 10 71 66 78 hhcurveto
          85 53 -59 -118 hvcurveto
          endchar
        </CharString>
        <CharString name="eogonek.sups">
          -74 callsubr
        </CharString>
        <CharString name="equal">
          19 callsubr
          34 412 rmoveto
          -17 callgsubr
          -248 vmoveto
          -17 callgsubr
          endchar
        </CharString>
        <CharString name="estimated">
          338 -12 20 308 18 306 20 hstem
          46 130 450 128 vstem
          400 -12 rmoveto
          114 102 52 80 66 hvcurveto
          -52 hlineto
          -68 -56 -82 -44 -90 hhcurveto
          -86 -78 38 62 -54 hvcurveto
          -4 6 -4 6 8 vvcurveto
          184 vlineto
          2 2 2 2 vhcurveto
          574 8 hlineto
          186 -158 150 -196 -196 -158 -150 -186 -186 158 -150 196 vhcurveto
          -220 346 rmoveto
          -2 -2 2 4 hvcurveto
          180 vlineto
          8 4 8 4 6 vhcurveto
          60 56 76 38 86 hhcurveto
          82 76 -36 -58 56 hvcurveto
          6 -6 4 -8 -8 vvcurveto
          -184 vlineto
          -4 -2 -2 -4 vhcurveto
          endchar
        </CharString>
        <CharString name="eth">
          75 -12 45 367 43 282 -20 hstem
          58 51 312 51 vstem
          337 606 rmoveto
          133 69 -17 30 -142 -74 -42 38 -48 30 -48 26 rlinecurve
          -25 -34 44 -25 41 -26 36 -30 rlinecurve
          -131 -68 17 -30 141 73 55 -54 41 -67 19 -95 rlinecurve
          49 -38 -52 25 -55 hhcurveto
          -123 -85 -91 -132 -145 102 -87 107 122 83 105 160 162 -55 110 -80 81 hvcurveto
          -69 -573 rmoveto
          -87 -72 76 111 98 56 82 104 49 51 -16 -71 50 hvcurveto
          1 -19 1 -21 -21 vvcurveto
          -124 -48 -95 -105 vhcurveto
          endchar
        </CharString>
        <CharString name="exclam">
          -61 callgsubr
        </CharString>
        <CharString name="exclam.lat">
          -61 callgsubr
        </CharString>
        <CharString name="exclamdown">
          -197 396 97 hstemhm
          87 91 -67.5 44 hintmask 00000000
          hintmask 11000000
          132 396 rmoveto
          24 22 19 30 30 -22 18 -24 -24 -21 -18 -30 -30 21 -19 24 hvcurveto
          hintmask 10100000
          -26 -585 rmoveto
          53 hlineto
          -1 75 -7 413 rlineto
          -37 hlineto
          -7 -413 rlineto
          endchar
        </CharString>
        <CharString name="exclamdown.lat">
          -197 endchar
        </CharString>
        <CharString name="f">
          -194 437 44 205 44 hstem
          98 52 vstem
          224 686 rmoveto
          17 20 -4 -9 19 hvcurveto
          13 41 rlineto
          10 -22 -26 6 -24 hhcurveto
          -80 -43 -52 -95 hvcurveto
          -102 vlineto
          -66 -4 rlineto
          -40 66 -437 52 437 109 44 -109 99 vlineto
          68 23 38 51 vhcurveto
          endchar
        </CharString>
        <CharString name="fi">
          38 437 44 113 86 6 44 hstemhm
          98 52 194 82 -68 52 hintmask 10110100
          -50 callgsubr
          hintmask 11011000
          287 97 -36 callsubr
          hintmask 10110100
          -27 -680 -32 callsubr
        </CharString>
        <CharString name="five">
          -96 callgsubr
        </CharString>
        <CharString name="five.heb">
          -96 callgsubr
        </CharString>
        <CharString name="five.lat">
          -96 callgsubr
        </CharString>
        <CharString name="five.pnumheb">
          20 endchar
        </CharString>
        <CharString name="five.pnumlat">
          20 endchar
        </CharString>
        <CharString name="fl">
          46 -12 35 callsubr
          205 44 -12 -20 hstemhm
          98 52 208 52 hintmask 11101100
          -50 callgsubr
          351 -549 rmoveto
          -2 -10 -4 0 -4 hhcurveto
          -12 -9 10 23 hvcurveto
          hintmask 11011100
          653 -52 -647 vlineto
          -56 21 -27 43 16 9 3 3 10 vhcurveto
          endchar
        </CharString>
        <CharString name="florin">
          -88 callsubr
        </CharString>
        <CharString name="florin.heb">
          78 endchar
        </CharString>
        <CharString name="florin.lat">
          -88 callsubr
        </CharString>
        <CharString name="four">
          -90 callgsubr
        </CharString>
        <CharString name="four.heb">
          -90 callgsubr
        </CharString>
        <CharString name="four.lat">
          -90 callgsubr
        </CharString>
        <CharString name="four.pnumheb">
          20 endchar
        </CharString>
        <CharString name="four.pnumlat">
          20 endchar
        </CharString>
        <CharString name="fraction">
          -80 callsubr
        </CharString>
        <CharString name="fraction.lat">
          -80 callsubr
        </CharString>
        <CharString name="g">
          -44 callgsubr
          -12 callsubr
          hintmask 0000000000000000
          hintmask 1111010011000000
          249 -230 -31 callsubr
          hintmask 1111000110000000
          -82 callgsubr
          hintmask 1110101010000000
          -53 callgsubr
          hintmask 1111000110000000
          -41 callgsubr
          hintmask 1111010010000000
          -44 -30 -28 -42 -42 vvcurveto
          hintmask 1111010011000000
          -82 78 -51 121 vhcurveto
          hintmask 1111001010000000
          -60 callsubr
          hintmask 1111010011000000
          -78 callsubr
        </CharString>
        <CharString name="gammalatin">
          -22 -214 8 198 -21 56 46 hstemhm
          162 60 0 59 hintmask 11101000
          252 27 rmoveto
          176 454 rlineto
          -51 hlineto
          -105 -283 -16 -45 -17 -37 -15 -43 rlinecurve
          -4 hlineto
          -16 43 -17 37 -15 45 -105 283 rcurveline
          -55 hlineto
          hintmask 11110000
          179 -454 rlineto
          13 hlineto
          -24 -70 -18 -46 -41 vvcurveto
          -50 18 -34 42 vhcurveto
          hintmask 11101000
          41 18 34 50 41 -18 46 -25 70 hvcurveto
          -16 -233 rmoveto
          -12 0 0 33 0 43 0 29 5 35 37 flex1
          7 -36 5 -34 0 -31 0 -43 0 -33 0 flex1
          endchar
        </CharString>
        <CharString name="gcaron">
          -44 callgsubr
          80 43 -12 callsubr
          hintmask 1111010101000000
          228 -86 callgsubr
          hintmask 1111011001100000
          137 -946 -97 callsubr
        </CharString>
        <CharString name="gdotaccent">
          -44 callgsubr
          101 86 hstemhm
          50 49 -28 51 -42 47 85 82 69 49 15 52 hintmask 1111010101100000
          253 -6 callsubr
          hintmask 1111011001110000
          -4 -824 -31 callsubr
          hintmask 1111010011100000
          -82 callgsubr
          hintmask 1110110101100000
          -53 callgsubr
          hintmask 1111010011100000
          -41 callgsubr
          hintmask 1111011001100000
          -44 -30 -28 -42 -42 vvcurveto
          hintmask 1111011001110000
          -82 78 -51 121 vhcurveto
          hintmask 1111010101100000
          -60 callsubr
          hintmask 1111011001110000
          -78 callsubr
        </CharString>
        <CharString name="germandbls">
          87 -12 43 653 44 hstem
          90 51 121 50 46 52 59 50 vstem
          371 -12 rmoveto
          88 60 61 80 hvcurveto
          167 -207 -32 112 78 98 35 103 vvcurveto
          76 -54 60 -90 -108 -68 -76 -123 vhcurveto
          -529 51 514 vlineto
          116 49 54 74 62 32 -41 -56 vhcurveto
          -89 -96 -31 -96 -143 207 33 -135 vvcurveto
          -49 -34 -46 -65 -41 -34 15 31 -37 vhcurveto
          -24 -38 rlineto
          -32 38 46 -19 53 hhcurveto
          endchar
        </CharString>
        <CharString name="glottalstopreversedsupmod">
          -179 849 35 hstem
          18 43 73 42 vstem
          134 404 rmoveto
          42 215 hlineto
          -78 43 -37 38 60 vvcurveto
          53 36 36 62 45 30 -24 -25 20 vhcurveto
          23 27 rlineto
          28 -24 -37 29 -59 hhcurveto
          -78 -61 -43 -81 -76 49 -43 67 -43 hvcurveto
          endchar
        </CharString>
        <CharString name="grave">
          74 725 -15 callgsubr
          148 174 vstem
          294 -54 callgsubr
          endchar
        </CharString>
        <CharString name="gravecomb">
          725 -15 callgsubr
          -120 174 vstem
          26 -54 callgsubr
          endchar
        </CharString>
        <CharString name="gravecomb.cap">
          705 150 hstem
          -117 160 vstem
          20 -46 callgsubr
          endchar
        </CharString>
        <CharString name="greater">
          20 143 378 hstem
          395 53 vstem
          34 143 rmoveto
          414 165 rlineto
          48 vlineto
          -414 165 rlineto
          -48 vlineto
          361 -139 rlineto
          -4 vlineto
          -361 -138 rlineto
          endchar
        </CharString>
        <CharString name="greaterequal">
          20 0 42 hstem
          395 53 vstem
          34 152 rmoveto
          414 159 rlineto
          51 vlineto
          -414 159 rlineto
          -48 vlineto
          228 -86 133 -48 rlineto
          -4 vlineto
          -361 -134 rlineto
          -201 vmoveto
          -17 callgsubr
          endchar
        </CharString>
        <CharString name="guillemotleft">
          -57 8 callgsubr
          43 42 102 42 vstem
          181 71 -67 callgsubr
          281 -160 rmoveto
          27 21 -122 160 122 158 -27 23 -137 -160 rlineto
          -42 vlineto
          endchar
        </CharString>
        <CharString name="guillemotleft.lat">
          -57 8 callgsubr
          43 42 102 42 vstem
          181 71 -67 callgsubr
          282 -160 -67 callgsubr
          endchar
        </CharString>
        <CharString name="guillemotright">
          -57 8 callgsubr
          176 42 101 43 vstem
          80 71 -75 callgsubr
          170 -21 rmoveto
          138 160 rlineto
          42 vlineto
          -138 160 -26 -23 121 -158 -121 -160 rlineto
          endchar
        </CharString>
        <CharString name="guillemotright.lat">
          -57 8 callgsubr
          176 42 102 42 vstem
          80 71 -75 callgsubr
          170 -21 -75 callgsubr
          endchar
        </CharString>
        <CharString name="guilsinglleft">
          -201 8 callgsubr
          43 42 vstem
          181 71 -67 callgsubr
          endchar
        </CharString>
        <CharString name="guilsinglleft.lat">
          -201 8 callgsubr
          43 42 vstem
          181 71 -67 callgsubr
          endchar
        </CharString>
        <CharString name="guilsinglright">
          -201 8 callgsubr
          176 42 vstem
          80 71 -75 callgsubr
          endchar
        </CharString>
        <CharString name="guilsinglright.lat">
          -201 8 callgsubr
          176 42 vstem
          80 71 -75 callgsubr
          endchar
        </CharString>
        <CharString name="h">
          69 448 45 37 callgsubr
          17 callsubr
          258 52 vstem
          -87 callgsubr
          endchar
        </CharString>
        <CharString name="hbar">
          69 413 45 121 36 -36 139 hstemhm
          90 52 258 52 hintmask 11011000
          306 458 rmoveto
          -67 -49 -37 -49 -50 hvcurveto
          2 105 rlineto
          102 187 36 -187 vlineto
          hintmask 10111000
          103 -52 vlineto
          hintmask 11011000
          -103 vlineto
          -76 -5 rlineto
          -31 76 -579 52 325 vlineto
          58 56 40 30 56 hhcurveto
          75 31 -47 -100 hvcurveto
          -266 52 273 vlineto
          124 -46 61 -100 vhcurveto
          endchar
        </CharString>
        <CharString name="hungarumlaut">
          74 752 -20 hstem
          187 263 vstem
          218 -22 callsubr
        </CharString>
        <CharString name="hyphen">
          -61 callsubr
        </CharString>
        <CharString name="i">
          -230 594 86 hstemhm
          76 82 -68 52 hintmask 00000000
          hintmask 11000000
          117 -6 callsubr
          hintmask 10100000
          -27 -594 -32 callsubr
        </CharString>
        <CharString name="iacute">
          -230 725 -15 callgsubr
          90 52 vstem
          91 -75 callsubr
          27 -600 -32 callsubr
        </CharString>
        <CharString name="icircumflex">
          -230 695 42 17 callsubr
          vstem
          1 -85 callsubr
          114 -594 -32 callsubr
        </CharString>
        <CharString name="idieresis">
          -230 596 78 hstemhm
          -12 78 24 52 26 78 hintmask 00000000
          hintmask 11110000
          27 -98 callsubr
          hintmask 10100000
          -117 -596 -32 callsubr
        </CharString>
        <CharString name="igrave">
          -230 725 -15 callgsubr
          90 52 vstem
          143 -54 callgsubr
          93 -725 -32 callsubr
        </CharString>
        <CharString name="imacron">
          -230 605 40 17 callsubr
          vstem
          -8 -28 callsubr
          98 -645 -32 callsubr
        </CharString>
        <CharString name="infinity">
          304 163 51 -35 42 209 51 -26 42 hstemhm
          41 44 596 44 hintmask 00000000
          hintmask 10011100
          565 163 rmoveto
          95 65 72 99 96 -65 67 -97 -87 -63 -65 -61 -45 hvcurveto
          -4 hlineto
          hintmask 01101100
          47 -36 -54 63 -82 hhcurveto
          -84 -67 -59 -94 -85 66 -64 76 87 56 71 37 34 hvcurveto
          4 hlineto
          hintmask 10011100
          -72 60 56 -52 85 hhcurveto
          2 51 rmoveto
          -64 -50 39 82 -63 hvcurveto
          76 53 52 44 64 hhcurveto
          78 44 -53 -71 -64 -42 -53 -72 hvcurveto
          hintmask 01101100
          -378 7 rmoveto
          -56 -48 45 64 64 45 36 58 56 47 -41 -64 47 hvcurveto
          -56 -37 -51 -48 -61 hhcurveto
          endchar
        </CharString>
        <CharString name="integral">
          -157 -158 43 861 43 hstemhm
          123 48 -4 47 hintmask 11010000
          100 -158 rmoveto
          94 20 95 125 hvcurveto
          hintmask 11100000
          140 -43 227 142 vvcurveto
          107 11 68 57 14 12 -2 -2 8 vhcurveto
          7 40 rlineto
          4 -7 -17 3 -17 hhcurveto
          -96 -20 -97 -123 hvcurveto
          hintmask 11010000
          -140 44 -229 -142 vvcurveto
          -107 -10 -66 -58 -14 -12 2 2 -9 vhcurveto
          -7 -41 rlineto
          -4 8 16 -2 19 hhcurveto
          endchar
        </CharString>
        <CharString name="ismall">
          -146 0 29 callsubr
          132 52 vstem
          44 hmoveto
          228 44 -88 393 88 44 -228 -44 88 -393 -88 hlineto
          endchar
        </CharString>
        <CharString name="j">
          -230 -227 44 777 86 hstemhm
          76 82 -66 51 hintmask 00000000
          hintmask 11100000
          117 680 rmoveto
          -23 -18 -18 -24 -26 18 -18 23 24 17 18 26 24 -17 18 -24 hvcurveto
          hintmask 10010000
          -25 -760 rmoveto
          -16 callsubr
          -6 15 25 -6 23 hhcurveto
          79 34 49 95 hvcurveto
          564 -51 vlineto
          endchar
        </CharString>
        <CharString name="j.sups">
          -303 255 37 430 -20 90 65 hstemhm
          48 67 -56 42 hintmask 00000000
          hintmask 11110000
          81 792 rmoveto
          20 14 14 19 19 -14 13 -20 -19 -14 -13 -19 -19 14 -14 19 hvcurveto
          hintmask 11001000
          -60 -537 rmoveto
          55 25 34 71 hvcurveto
          362 -42 -366 vlineto
          -40 -8 -24 -34 -14 -6 2 4 -10 vhcurveto
          -9 -35 rlineto
          -6 15 10 -2 18 hhcurveto
          endchar
        </CharString>
        <CharString name="k">
          7 718 -20 hstem
          90 51 -68 callgsubr
          endchar
        </CharString>
        <CharString name="l">
          -51 callgsubr
        </CharString>
        <CharString name="lefttorightembed">
          24 callsubr
          -129 88 5 callgsubr
          -76 -36 76 hlineto
          -63 -66 rlineto
          -143 66 rmoveto
          88 36 -88 hlineto
          endchar
        </CharString>
        <CharString name="less">
          20 143 378 hstem
          34 53 vstem
          448 143 rmoveto
          49 vlineto
          -361 138 rlineto
          4 vlineto
          361 139 rlineto
          48 vlineto
          -414 -165 rlineto
          -48 vlineto
          endchar
        </CharString>
        <CharString name="lessequal">
          20 0 42 hstem
          34 53 vstem
          448 152 rmoveto
          49 vlineto
          -361 134 rlineto
          4 vlineto
          134 48 227 86 rlineto
          48 vlineto
          -414 -159 rlineto
          -51 vlineto
          -311 vmoveto
          -17 callgsubr
          endchar
        </CharString>
        <CharString name="litre">
          -82 -12 45 655 42 hstem
          106 51 143 48 vstem
          343 77 rmoveto
          -23 -24 -25 -21 -41 hhcurveto
          -52 -44 39 106 hvcurveto
          39 vlineto
          110 104 81 134 128 vvcurveto
          96 -49 51 -67 -70 -56 -56 -148 vhcurveto
          -299 vlineto
          -25 -22 -27 -21 -28 -19 23 -34 rcurveline
          20 13 19 14 18 15 rrcurveto
          -6 vlineto
          -118 64 -61 77 52 40 30 27 27 vhcurveto
          -133 643 rmoveto
          38 29 -28 -78 -107 -58 -108 -85 -91 hvcurveto
          261 vlineto
          103 35 48 41 vhcurveto
          endchar
        </CharString>
        <CharString name="logicalnot">
          20 309 42 hstem
          402 46 vstem
          402 109 rmoveto
          46 242 -414 -42 368 hlineto
          endchar
        </CharString>
        <CharString name="lozenge">
          40 -10 44 592 44 hstem
          59 385 vstem
          224 -10 rmoveto
          54 hlineto
          166 340 -166 340 -4 callgsubr
          -165 -340 rlineto
          190 -296 rmoveto
          -67 138 -74 158 74 157 67 139 38 callgsubr
          67 -139 74 -157 -74 -158 -67 -138 rlineto
          endchar
        </CharString>
        <CharString name="lslash">
          -219 -12 44 686 -20 hstem
          92 51 vstem
          165 32 rmoveto
          -12 -10 10 23 hvcurveto
          321 vlineto
          77 51 -20 34 -57 -37 rlineto
          284 -51 -312 vlineto
          -84 -54 20 -35 64 41 rlineto
          -287 vlineto
          -56 21 -27 43 16 9 3 3 10 vhcurveto
          -8 40 rlineto
          -2 -10 -4 0 -4 hhcurveto
          endchar
        </CharString>
        <CharString name="m">
          353 448 45 17 callsubr
          244 51 244 51 vstem
          90 hmoveto
          52 360 hlineto
          59 51 46 29 42 hhcurveto
          72 33 -47 -100 hvcurveto
          -301 51 360 vlineto
          59 52 44 29 44 hhcurveto
          71 33 -47 -100 hvcurveto
          -301 51 308 vlineto
          124 -48 61 -96 -56 -53 -38 -59 -53 vhcurveto
          59 -18 -39 38 -76 hhcurveto
          -55 -54 -37 -48 -43 hvcurveto
          10 callsubr
        </CharString>
        <CharString name="macron">
          74 605 40 hstem
          143 250 vstem
          143 -28 callsubr
          endchar
        </CharString>
        <CharString name="minus">
          20 309 42 hstem
          34 414 vstem
          34 309 rmoveto
          -17 callgsubr
          endchar
        </CharString>
        <CharString name="multiply">
          20 133 394 hstem
          51 380 vstem
          81 133 rmoveto
          160 167 160 -167 30 32 -160 165 160 165 -30 32 -160 -167 -160 167 -30 -32 160 -165 -160 -165 rlineto
          endchar
        </CharString>
        <CharString name="n">
          72 448 45 17 callsubr
          258 52 vstem
          -73 callsubr
          -50 -37 -48 -48 vhcurveto
          10 callsubr
        </CharString>
        <CharString name="newsheqel">
          20 endchar
        </CharString>
        <CharString name="newsheqel.heb">
          78 endchar
        </CharString>
        <CharString name="newsheqel.lat">
          14 endchar
        </CharString>
        <CharString name="nine">
          -99 callsubr
        </CharString>
        <CharString name="nine.heb">
          -99 callsubr
        </CharString>
        <CharString name="nine.lat">
          -99 callsubr
        </CharString>
        <CharString name="nine.pnumheb">
          20 endchar
        </CharString>
        <CharString name="nine.pnumlat">
          20 endchar
        </CharString>
        <CharString name="notequal">
          19 callsubr
          65 78 rmoveto
          45 hlineto
          78 128 rlineto
          260 42 -234 hlineto
          100 164 rlineto
          134 42 -109 hlineto
          78 128 rlineto
          -45 hlineto
          -78 -128 rlineto
          -260 -42 235 hlineto
          -100 -164 rlineto
          -135 -42 110 hlineto
          endchar
        </CharString>
        <CharString name="ntilde">
          72 448 45 86 40 53 40 hstemhm
          90 52 -23 38 243 52 -41 38 hintmask 00000000
          hintmask 11101010
          359 -87 callsubr
          hintmask 11110100
          -269 -579 rmoveto
          -89 callgsubr
          -50 -37 -48 -48 vhcurveto
          10 callsubr
        </CharString>
        <CharString name="numbersign">
          -83 callsubr
        </CharString>
        <CharString name="numbersign.heb">
          78 endchar
        </CharString>
        <CharString name="numbersign.lat">
          -83 callsubr
        </CharString>
        <CharString name="o">
          74 32 callsubr
          51 53 328 54 vstem
          268 -12 rmoveto
          -105 callgsubr
          endchar
        </CharString>
        <CharString name="o.sups">
          -59 callsubr
        </CharString>
        <CharString name="oacute">
          74 -40 callgsubr
          34 callgsubr
          51 53 328 54 vstem
          242 -75 callsubr
          54 -612 rmoveto
          -105 callgsubr
          endchar
        </CharString>
        <CharString name="obreve">
          74 -40 callgsubr
          77 -10 callgsubr
          51 53 14 15 callsubr
          14 54 hintmask 0000000000000000
          hintmask 1111011110000000
          268 7 callsubr
          hintmask 1110111110000000
          -85 callgsubr
          hintmask 1111011110000000
          -26 callgsubr
          hintmask 1110110010000000
          -582 vmoveto
          -105 callgsubr
          endchar
        </CharString>
        <CharString name="ocircumflex">
          74 -40 callgsubr
          202 42 37 callsubr
          328 54 vstem
          152 -85 callsubr
          141 -606 rmoveto
          -105 callgsubr
          endchar
        </CharString>
        <CharString name="odieresis">
          74 -40 callgsubr
          103 78 37 callsubr
          35 78 102 78 35 54 vstem
          178 -98 callsubr
          -90 -608 rmoveto
          -105 callgsubr
          endchar
        </CharString>
        <CharString name="oe">
          385 -12 45 199 38 179 44 37 callsubr
          319 50 289 47 vstem
          263 -12 rmoveto
          84 65 46 91 36 hvcurveto
          -84 36 69 -53 83 hhcurveto
          70 45 23 25 38 hvcurveto
          -20 38 rlineto
          -25 -36 -41 -17 -51 hhcurveto
          -94 -74 83 117 hvcurveto
          333 hlineto
          2 12 1 12 13 vvcurveto
          141 -69 83 -114 -77 -66 -53 -85 -35 vhcurveto
          91 -34 -74 47 -76 hhcurveto
          -113 -100 -24 callsubr
          99 -93 113 hvcurveto
          210 282 rmoveto
          107 9 66 73 77 hhcurveto
          83 54 -61 -119 hvcurveto
          -498 -237 rmoveto
          -92 -68 83 124 123 68 86 92 93 66 -86 -123 -124 -66 -83 -93 hvcurveto
          endchar
        </CharString>
        <CharString name="ogonek">
          74 endchar
        </CharString>
        <CharString name="ograve">
          74 -40 callgsubr
          34 callgsubr
          51 53 328 54 vstem
          294 -54 callgsubr
          120 -737 rmoveto
          -105 callgsubr
          endchar
        </CharString>
        <CharString name="omacron">
          74 -40 callgsubr
          112 40 37 callsubr
          328 54 vstem
          143 -28 callsubr
          125 -657 rmoveto
          -105 callgsubr
          endchar
        </CharString>
        <CharString name="one">
          -77 callsubr
        </CharString>
        <CharString name="one.heb">
          -77 callsubr
        </CharString>
        <CharString name="one.lat">
          -77 callsubr
        </CharString>
        <CharString name="one.pnumheb">
          -95 endchar
        </CharString>
        <CharString name="one.pnumlat">
          -112 563 35 -35 76 hstemhm
          171 51 hintmask 01100000
          171 hmoveto
          51 639 -41 hlineto
          hintmask 10100000
          -31 -18 -41 -15 -53 -8 rrcurveto
          hintmask 01100000
          -35 115 vlineto
          endchar
        </CharString>
        <CharString name="one.sups">
          -99 endchar
        </CharString>
        <CharString name="one.supsheb">
          -75 endchar
        </CharString>
        <CharString name="one.supslat">
          -81 endchar
        </CharString>
        <CharString name="onehalf">
          328 670 -20 hstem
          160 409 vstem
          160 17 callgsubr
        </CharString>
        <CharString name="onehalf.heb">
          78 endchar
        </CharString>
        <CharString name="onehalf.lat">
          328 0 38 327 37 149 69 51 -20 hstem
          159 42 473 44 vstem
          160 -12 rmoveto
          42 hlineto
          367 683 36 callsubr
          -368 -441 rmoveto
          42 390 -36 hlineto
          40 callsubr
          vlineto
          324 -551 rmoveto
          257 38 -187 hlineto
          97 96 68 64 80 vvcurveto
          83 -50 41 -73 -50 -47 -33 -40 -25 vhcurveto
          28 -25 rlineto
          33 22 32 28 35 hhcurveto
          51 33 -36 -56 -64 -60 -61 -131 -121 hvcurveto
          endchar
        </CharString>
        <CharString name="onequarter">
          311 670 -20 hstem
          181 408 vstem
          181 16 callsubr
        </CharString>
        <CharString name="onequarter.heb">
          78 endchar
        </CharString>
        <CharString name="onequarter.lat">
          311 112 34 190 54 161 69 51 -20 hstem
          159 42 432 40 vstem
          548 671 rmoveto
          -367 -683 rlineto
          41 hlineto
          367 683 rlineto
          -388 -441 rmoveto
          390 -36 vlineto
          40 callsubr
          -321 vlineto
          572 -84 rmoveto
          -58 244 -43 hlineto
          -32 callgsubr
        </CharString>
        <CharString name="ordfeminine">
          -124 -78 callgsubr
        </CharString>
        <CharString name="ordmasculine">
          -59 callsubr
        </CharString>
        <CharString name="oslash">
          74 endchar
        </CharString>
        <CharString name="otilde">
          74 -40 callgsubr
          86 40 53 40 hstemhm
          51 53 -1 38 254 38 -1 54 hintmask 00000000
          hintmask 11110110
          343 -87 callsubr
          hintmask 11111001
          -75 -591 rmoveto
          -105 callgsubr
          endchar
        </CharString>
        <CharString name="p">
          84 -12 45 416 44 5 callsubr
          88 rlineto
          -38 49 48 -21 45 hhcurveto
          -5 callgsubr
          -64 96 -129 -58 -57 -34 -37 -46 hvcurveto
          -2 hlineto
          -6 59 rlineto
          -43 hlineto
          189 -448 -24 callgsubr
        </CharString>
        <CharString name="paragraph">
          -48 callsubr
        </CharString>
        <CharString name="paragraph.lat">
          -48 callsubr
        </CharString>
        <CharString name="parenleft">
          -60 callgsubr
        </CharString>
        <CharString name="parenleft.lat">
          -60 callgsubr
        </CharString>
        <CharString name="parenright">
          -57 callgsubr
        </CharString>
        <CharString name="parenright.lat">
          -57 callgsubr
        </CharString>
        <CharString name="partialdiff">
          42 -12 45 323 43 227 45 hstem
          37 50 328 51 vstem
          265 671 rmoveto
          -58 -52 -25 -40 -38 hvcurveto
          27 -32 rlineto
          33 32 41 19 44 hhcurveto
          89 65 -68 -194 -14 -1 -13 -1 -13 hvcurveto
          46 -43 -58 29 -58 hhcurveto
          -139 -78 -92 -129 -119 83 -71 91 154 101 152 225 217 -84 89 -117 hvcurveto
          -49 -638 rmoveto
          -70 -59 59 89 94 50 81 119 48 53 -22 -60 52 hvcurveto
          -143 -20 -69 -98 -104 hhcurveto
          endchar
        </CharString>
        <CharString name="percent">
          345 670 -20 hstem
          198 408 vstem
          198 16 callsubr
        </CharString>
        <CharString name="percent.heb">
          78 endchar
        </CharString>
        <CharString name="percent.lat">
          347 11 callsubr
          39 43 199 43 159 44 198 43 vstem
          198 -12 rmoveto
          41 hlineto
          367 683 rlineto
          -41 hlineto
          -383 -453 rmoveto
          87 55 74 134 9 callsubr
          hvcurveto
          36 vmoveto
          -8 callgsubr
          444 -266 rmoveto
          87 55 75 133 132 -55 74 -87 -88 -55 -74 -132 -133 55 -75 88 hvcurveto
          36 vmoveto
          -14 callgsubr
        </CharString>
        <CharString name="period">
          -237 -12 98 34 callsubr
          -12 rmoveto
          -65 callsubr
        </CharString>
        <CharString name="periodcentered">
          -237 274 97 34 callsubr
          274 rmoveto
          24 22 19 29 30 -22 19 -24 -24 -21 -19 -30 -29 21 -19 24 hvcurveto
          endchar
        </CharString>
        <CharString name="periodcentered.lat">
          -237 274 97 34 callsubr
          274 -35 callgsubr
          endchar
        </CharString>
        <CharString name="perthousand">
          -80 callsubr
        </CharString>
        <CharString name="perthousand.heb">
          78 endchar
        </CharString>
        <CharString name="perthousand.lat">
          706 11 callsubr
          54 43 199 43 141 43 199 43 75 43 198 44 vstem
          504 671 rmoveto
          -172 -321 rlineto
          5 23 2 25 28 vvcurveto
          9 callsubr
          30 26 8 18 22 vhcurveto
          -138 -256 rlineto
          42 hlineto
          367 683 rlineto
          -349 -417 rmoveto
          -8 callgsubr
          425 148 rmoveto
          -8 callsubr
          360 hmoveto
          -8 callsubr
          -360 -378 rmoveto
          -60 -39 62 110 110 39 60 60 60 40 -60 -110 -110 -40 -62 -60 hvcurveto
          360 hmoveto
          -14 callgsubr
        </CharString>
        <CharString name="pi">
          100 -12 45 403 45 hstem
          139 48 194 48 vstem
          467 -12 rmoveto
          24 17 5 4 16 hvcurveto
          -9 41 rlineto
          -3 -19 -13 -2 -8 hhcurveto
          -31 -15 15 34 58 2 174 6 122 hvcurveto
          100 45 -445 hlineto
          -67 -4 rlineto
          -41 114 vlineto
          -141 -14 -156 -20 -139 vhcurveto
          53 -3 rlineto
          14 138 15 156 145 vvcurveto
          200 hlineto
          -2 -118 -4 -171 -59 vvcurveto
          -68 26 -32 60 vhcurveto
          endchar
        </CharString>
        <CharString name="plus">
          20 309 41 callsubr
          109 rmoveto
          46 200 4 callgsubr
          endchar
        </CharString>
        <CharString name="plusminus">
          20 0 42 267 41 callsubr
          112 rmoveto
          46 197 4 callgsubr
          -184 -309 rmoveto
          -17 callgsubr
          endchar
        </CharString>
        <CharString name="popdirectionformat">
          765 229 hstem
          -19 36 vstem
          -19 765 rmoveto
          36 160 hlineto
          62 -64 25 26 -104 107 -104 -107 25 -26 60 63 rlineto
          endchar
        </CharString>
        <CharString name="product">
          194 593 46 hstem
          93 53 362 55 vstem
          93 -120 rmoveto
          53 713 362 -713 55 759 -470 hlineto
          endchar
        </CharString>
        <CharString name="q">
          16 callgsubr
          404 -215 rmoveto
          52 696 -42 hlineto
          -6 -45 rlineto
          -2 hlineto
          36 -45 -40 -1 callsubr
          -98 -155 -162 79 -90 120 62 53 34 40 42 hvcurveto
          -3 -94 rlineto
          -145 65 rmoveto
          -99 -55 81 126 119 71 90 92 46 42 -17 -43 48 hvcurveto
          -279 vlineto
          -50 -48 -46 -27 -51 hhcurveto
          endchar
        </CharString>
        <CharString name="question">
          -73 callgsubr
        </CharString>
        <CharString name="question.lat">
          -73 callgsubr
        </CharString>
        <CharString name="questiondown">
          -82 callsubr
        </CharString>
        <CharString name="questiondown.lat">
          -82 callsubr
        </CharString>
        <CharString name="quotedbl">
          -89 469 224 hstemhm
          83 57.5 90 57 -51.5 46 hintmask 00000000
          hintmask 11010000
          94 469 rmoveto
          36 hlineto
          10 150 1 74 rlineto
          -58 -74 hlineto
          158 -151 rmoveto
          36 hlineto
          10 151 rlineto
          hintmask 11100000
          1 73 rlineto
          -58 hlineto
          1 -73 rlineto
          endchar
        </CharString>
        <CharString name="quotedbl.lat">
          -89 endchar
        </CharString>
        <CharString name="quotedblbase">
          -89 15 29 callgsubr
          108 40 vstem
          119 97 rmoveto
          -24 -18 -15 -27 -27 21 -13 -90 callsubr
          148 hmoveto
          -25 -17 10 callgsubr
          -46 -34 vhcurveto
          19 -27 rlineto
          57 37 33 50 73 vvcurveto
          46 -19 25 -29 vhcurveto
          endchar
        </CharString>
        <CharString name="quotedblbase.lat">
          -89 endchar
        </CharString>
        <CharString name="quotedblleft">
          -89 471 82 hstem
          57 40 108 40 vstem
          253 553 rmoveto
          -3 -3 0 -1 -2 hvcurveto
          56 24 33 45 34 vhcurveto
          -19 27 rlineto
          -57 -37 -33 -50 -73 vvcurveto
          -46 19 -25 29 25 17 15 27 26 -21 14 -21 vhcurveto
          -87 122 rmoveto
          -19 27 rlineto
          -57 -37 -33 -50 -73 vvcurveto
          -46 19 -25 30 24 17 15 27 27 -21 13 -20 -3 -3 0 -1 -3 vhcurveto
          1 56 23 33 45 34 rrcurveto
          endchar
        </CharString>
        <CharString name="quotedblleft.lat">
          -89 endchar
        </CharString>
        <CharString name="quotedblright">
          -89 617 29 callgsubr
          108 -71 callgsubr
          148 hmoveto
          -25 -17 10 callgsubr
          -46 -34 vhcurveto
          19 -27 rlineto
          57 37 33 50 73 vvcurveto
          46 -19 25 -29 vhcurveto
          endchar
        </CharString>
        <CharString name="quotedblright.lat">
          -89 endchar
        </CharString>
        <CharString name="quoteleft">
          -52 callgsubr
        </CharString>
        <CharString name="quoteleft.lat">
          -52 callgsubr
        </CharString>
        <CharString name="quoteright">
          -237 617 82 hstem
          127 -71 callgsubr
          endchar
        </CharString>
        <CharString name="quoteright.lat">
          -237 617 82 hstem
          127 -71 callgsubr
          endchar
        </CharString>
        <CharString name="quotesinglbase">
          0 callsubr
          -27 21 -13 -90 callsubr
          endchar
        </CharString>
        <CharString name="quotesinglbase.lat">
          -237 15 82 hstem
          127 40 vstem
          119 97 -65 callgsubr
          endchar
        </CharString>
        <CharString name="quotesingle">
          -29 callgsubr
        </CharString>
        <CharString name="quotesingle.lat">
          -29 callgsubr
        </CharString>
        <CharString name="r">
          -139 445 48 17 callsubr
          vstem
          90 hmoveto
          52 324 hlineto
          89 36 50 32 43 hhcurveto
          19 9 -2 -6 16 hvcurveto
          11 46 rlineto
          8 -15 -15 2 -18 hhcurveto
          -57 -47 -42 -59 -33 hvcurveto
          -2 hlineto
          -6 89 rlineto
          -43 hlineto
          endchar
        </CharString>
        <CharString name="radical">
          80 -103 65 hstem
          48 497 vstem
          283 -103 rmoveto
          44 hlineto
          218 923 36 callsubr
          -188 -803 -4 -18 -2 -18 -4 -19 rlinecurve
          -4 hlineto
          -5 19 -4 18 -7 18 -124 371 rcurveline
          -113 -52 16 -34 69 31 rlineto
          endchar
        </CharString>
        <CharString name="registered">
          -89 callsubr
        </CharString>
        <CharString name="registered.lat">
          -89 callsubr
        </CharString>
        <CharString name="righttoleftembed">
          24 callsubr
          41 88 30 callsubr
          75 36 -76 39 callgsubr
          185 -17 rmoveto
          88 36 -88 hlineto
          endchar
        </CharString>
        <CharString name="ring">
          74 549 28 136 28 hstem
          169 36 127 35 vstem
          268 549 rmoveto
          -42 callsubr
          -28 27 41 41 28 27 35 36 28 -27 -41 -41 -28 -27 -36 hvcurveto
          endchar
        </CharString>
        <CharString name="ringhalfleftmod">
          -301 endchar
        </CharString>
        <CharString name="ringhalfrightmod">
          -301 endchar
        </CharString>
        <CharString name="rsmall">
          16 206 41 192 42 17 callsubr
          226 53 vstem
          438 hmoveto
          -138 210 rlineto
          68 13 53 42 82 vvcurveto
          99 -73 35 -101 vhcurveto
          -157 -481 52 206 107 hlineto
          131 -206 rlineto
          -238 247 rmoveto
          192 93 vlineto
          83 50 -28 -65 -65 -50 -34 -83 hvcurveto
          endchar
        </CharString>
        <CharString name="rsmallinverted">
          16 0 43 195 41 hstem
          57 53 226 52 vstem
          336 481 rmoveto
          -202 -108 vlineto
          -130 202 rlineto
          -58 hlineto
          138 -207 rlineto
          -68 -13 -53 -43 -82 vvcurveto
          -99 73 -37 101 vhcurveto
          157 481 hlineto
          -52 -438 rmoveto
          -93 hlineto
          -83 -50 29 65 65 50 36 83 hvcurveto
          93 hlineto
          endchar
        </CharString>
        <CharString name="s">
          33 callgsubr
          hstem
          54 51 217 51 vstem
          209 -12 -101 callgsubr
          endchar
        </CharString>
        <CharString name="sacute">
          33 callgsubr
          34 callgsubr
          54 51 217 51 vstem
          187 -75 callsubr
          50 -612 -101 callgsubr
          endchar
        </CharString>
        <CharString name="scaron">
          33 callgsubr
          80 43 hstem
          54 51 217 51 vstem
          188 -86 callgsubr
          137 -728 -101 callgsubr
          endchar
        </CharString>
        <CharString name="section">
          20 endchar
        </CharString>
        <CharString name="section.lat">
          20 endchar
        </CharString>
        <CharString name="semicolon">
          -237 -4 90 280 97 hstemhm
          67 91 -31 44 hintmask 00000000
          hintmask 11100000
          112 366 -35 callgsubr
          hintmask 11010000
          4 -280 -39 callsubr
        </CharString>
        <CharString name="seven">
          -76 callgsubr
        </CharString>
        <CharString name="seven.heb">
          -76 callgsubr
        </CharString>
        <CharString name="seven.lat">
          -76 callgsubr
        </CharString>
        <CharString name="seven.pnumheb">
          18 endchar
        </CharString>
        <CharString name="seven.pnumlat">
          16 594 45 hstem
          176 55 vstem
          176 hmoveto
          55 hlineto
          10 250 34 157 151 201 rrcurveto
          31 -382 -45 319 vlineto
          -126 -179 -51 -161 -10 -254 rrcurveto
          endchar
        </CharString>
        <CharString name="six">
          -99 callgsubr
        </CharString>
        <CharString name="six.heb">
          -99 callgsubr
        </CharString>
        <CharString name="six.lat">
          -99 callgsubr
        </CharString>
        <CharString name="six.pnumheb">
          20 endchar
        </CharString>
        <CharString name="six.pnumlat">
          20 endchar
        </CharString>
        <CharString name="slash">
          -17 callsubr
        </CharString>
        <CharString name="slash.lat">
          -17 callsubr
        </CharString>
        <CharString name="space">
          -262 endchar
        </CharString>
        <CharString name="sterling">
          -86 callsubr
        </CharString>
        <CharString name="sterling.heb">
          78 endchar
        </CharString>
        <CharString name="sterling.lat">
          -86 callsubr
        </CharString>
        <CharString name="summation">
          28 -120 45 669 45 hstemhm
          20 67 -56 67 hintmask 00000000
          hintmask 11100000
          20 -120 rmoveto
          470 45 -403 4 hlineto
          244 332 rlineto
          hintmask 11010000
          -233 329 rlineto
          4 361 45 -428 -37 vlineto
          242 -343 rlineto
          hintmask 11100000
          -253 -342 rlineto
          endchar
        </CharString>
        <CharString name="t">
          -145 -12 35 callsubr
          hstem
          102 51 vstem
          225 -12 -93 callsubr
          endchar
        </CharString>
        <CharString name="theta">
          47 -12 45 653 44 hstem
          64 53 276 52 vstem
          255 -12 rmoveto
          119 71 112 262 236 -71 132 -119 -120 -71 -132 -236 -262 71 -112 120 hvcurveto
          45 vmoveto
          -81 -57 89 240 218 57 106 81 80 58 -106 -218 -240 -58 -89 -80 hvcurveto
          -161 310 rmoveto
          41 322 -41 vlineto
          endchar
        </CharString>
        <CharString name="thorn">
          84 -12 45 416 44 225 -20 5 callsubr
          87 rlineto
          -37 49 47 -21 46 hhcurveto
          -5 callgsubr
          -65 96 -129 -57 -56 -33 -36 -47 hvcurveto
          1 89 rlineto
          205 -52 vlineto
          189 -685 -24 callgsubr
        </CharString>
        <CharString name="three">
          -104 callsubr
        </CharString>
        <CharString name="three.heb">
          -104 callsubr
        </CharString>
        <CharString name="three.lat">
          -104 callsubr
        </CharString>
        <CharString name="three.pnumheb">
          20 endchar
        </CharString>
        <CharString name="three.pnumlat">
          -104 callsubr
        </CharString>
        <CharString name="three.sups">
          -99 endchar
        </CharString>
        <CharString name="three.supsheb">
          -75 endchar
        </CharString>
        <CharString name="three.supslat">
          -81 endchar
        </CharString>
        <CharString name="threequarters">
          328 670 -20 hstem
          223 409 vstem
          223 17 callgsubr
        </CharString>
        <CharString name="threequarters.heb">
          78 endchar
        </CharString>
        <CharString name="threequarters.lat">
          328 112 34 72 36 82 54 22 31 152 37 39 -20 hstemhm
          251 43 -28 44 340 40 hintmask 1101110110000000
          590 671 rmoveto
          -367 -683 rlineto
          42 hlineto
          367 683 rlineto
          -322 -338 rmoveto
          54 -43 34 -47 9 vhcurveto
          hintmask 1101111010000000
          43 17 31 33 48 vvcurveto
          65 -54 39 -65 -51 -40 -27 -36 -29 vhcurveto
          28 -25 rlineto
          30 24 32 21 31 hhcurveto
          49 32 -29 -42 -44 -44 -37 -75 hvcurveto
          -31 vlineto
          hintmask 1101110110000000
          83 51 -27 -51 -51 -40 -29 -49 -43 -39 25 37 -24 hvcurveto
          -32 -24 rlineto
          -40 28 49 -34 62 hhcurveto
          73 59 43 72 hvcurveto
          438 -187 rmoveto
          -58 hlineto
          hintmask 1111110110000000
          244 -43 vlineto
          -32 callgsubr
        </CharString>
        <CharString name="tilde">
          74 579 40 53 40 hstem
          103 38 254 38 vstem
          343 579 rmoveto
          66 21 63 64 3 hvcurveto
          -38 3 rlineto
          -50 -2 -15 -40 -34 -54 -23 93 -73 hhcurveto
          -66 -22 -62 -65 -3 hvcurveto
          38 -3 rlineto
          51 2 15 39 35 53 23 -93 74 hhcurveto
          endchar
        </CharString>
        <CharString name="tildecomb">
          579 40 53 40 hstem
          -165 38 254 38 vstem
          75 -87 callsubr
          endchar
        </CharString>
        <CharString name="tildecomb.cap">
          717 13 callsubr
          -167 37 260 37 hintmask 10111000
          77 717 rmoveto
          55 32 48 65 3 hvcurveto
          -37 2 rlineto
          -45 -6 -19 -29 -29 -54 -22 78 -77 hhcurveto
          hintmask 01111000
          -22 callgsubr
          hintmask 10111000
          28 callsubr
          endchar
        </CharString>
        <CharString name="trademark">
          -81 callsubr
        </CharString>
        <CharString name="trademark.lat">
          -81 callsubr
        </CharString>
        <CharString name="two">
          -93 callgsubr
        </CharString>
        <CharString name="two.heb">
          -93 callgsubr
        </CharString>
        <CharString name="two.lat">
          -93 callgsubr
        </CharString>
        <CharString name="two.pnumheb">
          27 endchar
        </CharString>
        <CharString name="two.pnumlat">
          26 0 45 562 44 hstem
          353 52 vstem
          43 hmoveto
          392 45 -208 hlineto
          -35 -38 -2 -2 -35 hvcurveto
          172 182 114 122 125 vvcurveto
          109 -67 72 -115 -77 -55 -37 -58 -52 vhcurveto
          32 -31 rlineto
          47 39 51 35 57 hhcurveto
          94 41 -60 -78 -110 -105 -118 -205 -209 hvcurveto
          endchar
        </CharString>
        <CharString name="two.sups">
          -99 endchar
        </CharString>
        <CharString name="two.supsheb">
          -75 endchar
        </CharString>
        <CharString name="two.supslat">
          -81 endchar
        </CharString>
        <CharString name="u">
          70 -12 46 hstem
          83 51 257 51 vstem
          229 -12 -101 callsubr
        </CharString>
        <CharString name="uacute">
          70 -12 46 691 -15 callgsubr
          83 51 257 51 vstem
          242 -75 callsubr
          15 -612 -101 callsubr
        </CharString>
        <CharString name="ucircumflex">
          70 -12 46 661 42 hstem
          83 51 257 51 vstem
          152 -85 callsubr
          102 -606 -101 callsubr
        </CharString>
        <CharString name="udieresis">
          70 -12 46 562 78 hstemhm
          83 51 5 78 102 78 -6 51 hintmask 00000000
          hintmask 11011000
          178 -98 callsubr
          hintmask 10100100
          -129 -608 -101 callsubr
        </CharString>
        <CharString name="ugrave">
          70 -12 46 691 -15 callgsubr
          83 51 257 51 vstem
          294 -54 callgsubr
          81 -737 -101 callsubr
        </CharString>
        <CharString name="umacron">
          70 -12 46 571 40 hstem
          83 51 257 51 vstem
          143 -28 callsubr
          86 -657 -101 callsubr
        </CharString>
        <CharString name="underscore">
          38 -119 41 hstem
          12 476 vstem
          12 -119 rmoveto
          476 41 -476 hlineto
          endchar
        </CharString>
        <CharString name="uni00A0">
          -262 endchar
        </CharString>
        <CharString name="uni00AD">
          -61 callsubr
        </CharString>
        <CharString name="uni018F">
          188 -12 45 264 42 287 45 hstem
          62 53 428 53 vstem
          327 671 rmoveto
          -84 -69 -33 -43 -44 hvcurveto
          27 -36 rlineto
          40 41 61 27 66 hhcurveto
          141 75 -105 -182 2 hvcurveto
          -481 -14 hlineto
          -199 95 -138 166 166 107 126 217 217 -99 123 -170 vhcurveto
          -4 -638 rmoveto
          -120 -83 102 162 -5 hvcurveto
          427 hlineto
          -167 -10 -80 -97 -129 hhcurveto
          endchar
        </CharString>
        <CharString name="uni0250">
          39 -12 44 418 43 hstem
          83 51 256 52 vstem
          266 -12 rmoveto
          73 64 38 25 34 hvcurveto
          -22 37 rlineto
          -25 -32 -51 -31 -60 hhcurveto
          -113 -26 81 66 1 hvcurveto
          212 25 96 55 112 vvcurveto
          83 -58 39 -72 -64 -64 -33 -50 -51 vhcurveto
          -2 hlineto
          -5 71 rlineto
          -43 -296 hlineto
          -110 47 -87 136 vhcurveto
          -132 229 rmoveto
          146 vlineto
          62 61 54 25 52 hhcurveto
          48 41 -23 -61 -78 -65 -47 -191 -24 hvcurveto
          endchar
        </CharString>
        <CharString name="uni0254">
          -12 32 callsubr
          346 53 vstem
          180 -12 rmoveto
          123 96 93 159 163 -98 90 -111 -74 -43 -27 -31 -37 hvcurveto
          29 -36 rlineto
          30 32 35 20 54 hhcurveto
          89 71 -84 -125 -124 -70 -83 -99 -51 -43 24 30 -32 hvcurveto
          -26 -36 rlineto
          -37 42 52 -26 61 hhcurveto
          endchar
        </CharString>
        <CharString name="uni0259">
          23 -12 43 188 41 190 43 hstem
          38 47 298 52 vstem
          232 -12 rmoveto
          116 87 97 157 160 -87 91 -119 -70 -50 -22 -28 -41 hvcurveto
          20 -38 rlineto
          27 39 41 18 55 hhcurveto
          99 58 -81 -109 2 hvcurveto
          -342 hlineto
          -2 -12 0 -15 -13 vvcurveto
          -149 80 -83 114 vhcurveto
          -1 43 rmoveto
          -86 -60 60 128 hvcurveto
          298 hlineto
          -117 -9 -55 -71 -88 hhcurveto
          endchar
        </CharString>
        <CharString name="uni025B">
          -33 -12 -49 callgsubr
          hstemhm
          53 52 -25 52 hintmask 11110000
          240 -12 rmoveto
          67 47 17 40 54 hvcurveto
          -25 37 rlineto
          -36 -46 -40 -15 -51 hhcurveto
          -83 -58 40 63 62 53 36 93 hvcurveto
          63 41 -48 hlineto
          hintmask 11101000
          -93 -41 38 51 60 51 28 61 46 35 -16 -27 38 hvcurveto
          23 36 rlineto
          31 -39 -45 19 -58 hhcurveto
          -88 -76 -42 -83 -48 30 -43 51 -19 hvcurveto
          -4 vlineto
          hintmask 11110000
          -53 -15 -55 -37 -72 vvcurveto
          -85 78 -57 109 vhcurveto
          endchar
        </CharString>
        <CharString name="uni026B">
          -51 callgsubr
        </CharString>
        <CharString name="uni0283">
          -230 -227 44 871 44 -12 -20 hstemhm
          91 51 hintmask 10110000
          30 -227 rmoveto
          78 34 49 95 hvcurveto
          668 vlineto
          hintmask 11010000
          61 13 42 61 14 15 -5 -4 10 vhcurveto
          hintmask 10110000
          11 41 rlineto
          hintmask 11010000
          6 -13 -19 6 -21 hhcurveto
          -86 -36 -49 -95 hvcurveto
          -668 vlineto
          -16 callsubr
          hintmask 10110000
          -6 15 25 -6 24 hhcurveto
          endchar
        </CharString>
        <CharString name="uni028E">
          -20 685 45 -10 -20 hstemhm
          12 418 hintmask 10100000
          12 hmoveto
          52 hlineto
          99 296 14 41 15 51 15 43 rlinecurve
          4 hlineto
          17 -43 19 -51 15 -41 113 -296 rcurveline
          55 hlineto
          -197 489 24 72 rlineto
          71 24 39 53 58 hhcurveto
          13 16 -4 -4 9 hvcurveto
          hintmask 01100000
          12 43 rlineto
          hintmask 10100000
          6 -14 -18 4 -19 hhcurveto
          -88 -49 -77 -83 -28 hvcurveto
          endchar
        </CharString>
        <CharString name="uni0292">
          -54 -227 44 320 40.32 259.68 44 hstem
          338 53 vstem
          194 -227 rmoveto
          100 97 77 138 124 -88 86 -140 -25 hvcurveto
          207 281 rlineto
          27 -324 -44 260 vlineto
          -211 -285 25 -34 rlineto
          12 24 13 7 29 hhcurveto
          99 53 -58 -93 -101 -67 -68 -79 -80 -46 33 34 -35 hvcurveto
          -28 -35 rlineto
          -37 39 55 -39 97 hhcurveto
          endchar
        </CharString>
        <CharString name="uni0294">
          -60 644 -20 62 44 hstem
          154 52 122 53 vstem
          154 hmoveto
          52 300 hlineto
          101 63 74 64 117 vvcurveto
          121 -84 65 -109 -93 -56 -45 -41 -38 vhcurveto
          29 -35 rlineto
          39 34 47 38 76 hhcurveto
          90 51 -57 -85 -93 -56 -59 -118 -64 hvcurveto
          endchar
        </CharString>
        <CharString name="uni0295">
          -49 644 -20 62 44 hstem
          26 53 122 51 vstem
          201 hmoveto
          51 328 hlineto
          -117 64 -56 59 93 vvcurveto
          85 54 57 97 71 44 -38 -39 32 vhcurveto
          29 35 rlineto
          41 -36 -53 45 -88 hhcurveto
          -115 -88 -65 -121 -117 74 -64 101 -63 hvcurveto
          endchar
        </CharString>
        <CharString name="uni02A4">
          399 endchar
        </CharString>
        <CharString name="uni02A6">
          -102 endchar
        </CharString>
        <CharString name="uni02A7">
          -102 -227 44 171 35 callsubr
          207 44 -12 -20 hstemhm
          102 51 252 52 hintmask 11101110
          344 -227 rmoveto
          79 34 49 95 hvcurveto
          668 vlineto
          hintmask 11110110
          61 12 42 61 15 15 -5 -4 10 vhcurveto
          hintmask 11101110
          11 41 rlineto
          hintmask 11110110
          6 -13 -20 6 -20 hhcurveto
          -86 -37 -49 -95 hvcurveto
          -668 vlineto
          -61 -10 -42 -53 -19 -19 5 4 -12 vhcurveto
          -11 -41 rlineto
          hintmask 11101110
          -6 15 24 -6 24 hhcurveto
          -119 215 -93 callsubr
          endchar
        </CharString>
        <CharString name="uni02B9">
          -237 endchar
        </CharString>
        <CharString name="uni02C8">
          -363 530 191 hstemhm
          29 41 hintmask 00000000
          hintmask 11000000
          32 530 rmoveto
          35 hlineto
          6 191 rlineto
          -47 hlineto
          endchar
        </CharString>
        <CharString name="uni02D0">
          -237 44 113 139 111 hstem
          70 84 vstem
          91 296 rmoveto
          43 hlineto
          20 111 rlineto
          -84 hlineto
          -363 vmoveto
          84 hlineto
          -20 113 rlineto
          -43 hlineto
          endchar
        </CharString>
        <CharString name="uni0302">
          695 43 hstem
          -141 282 vstem
          -116 572 rmoveto
          114 123 38 callgsubr
          114 -123 25 22 -116 144 rlineto
          -50 hlineto
          -116 -144 rlineto
          endchar
        </CharString>
        <CharString name="uni0302.cap">
          726 -20 97 36 hstem
          -137 274 vstem
          -114 706 rmoveto
          112 97 38 callgsubr
          112 -97 23 20 -111 113 rlineto
          -52 hlineto
          -111 -113 rlineto
          endchar
        </CharString>
        <CharString name="uni0304">
          605 40 hstem
          -125 250 vstem
          -125 -28 callsubr
          endchar
        </CharString>
        <CharString name="uni0304.cap">
          742 40 hstem
          -126 252 vstem
          -126 742 rmoveto
          252 40 -252 hlineto
          endchar
        </CharString>
        <CharString name="uni0306">
          570 -10 callgsubr
          -150 15 callsubr
          hintmask 10111000
          570 vmoveto
          hintmask 11011000
          -27 callsubr
          hintmask 10111000
          -85 callgsubr
          -26 callgsubr
          endchar
        </CharString>
        <CharString name="uni0306.cap">
          709 37 hstem
          -138 36 204 36 vstem
          709 vmoveto
          89 41 64 61 8 hvcurveto
          -36 6 rlineto
          -50 -7 -32 -44 -63 hhcurveto
          -63 -32 44 50 -7 hvcurveto
          -36 -6 rlineto
          -61 8 41 -64 89 hhcurveto
          endchar
        </CharString>
        <CharString name="uni0307">
          594 86 hstem
          -41 82 vstem
          594 vmoveto
          -104 callgsubr
          endchar
        </CharString>
        <CharString name="uni0307.cap">
          720 85 hstem
          -43 86 vstem
          720 vmoveto
          1 callsubr
          endchar
        </CharString>
        <CharString name="uni0308">
          596 78 hstem
          -129 78 102 78 vstem
          -90 -98 callsubr
          endchar
        </CharString>
        <CharString name="uni0308.cap">
          723 78 hstem
          -138 36 callgsubr
          vstem
          -99 723 rmoveto
          22 17 15 24 23 -17 16 -22 -74 callgsubr
          198 hmoveto
          22 17 15 24 23 -17 16 -22 -74 callgsubr
          endchar
        </CharString>
        <CharString name="uni030A">
          549 28 136 28 hstem
          -99 35 128 35 vstem
          549 vmoveto
          -42 callsubr
          -29 27 41 41 29 27 35 35 29 -27 -41 -41 -29 -27 -35 hvcurveto
          endchar
        </CharString>
        <CharString name="uni030A.cap">
          699 28 118 28 hstem
          -89 32 112 34 vstem
          699 vmoveto
          1 callgsubr
          28 vmoveto
          -31 -26 21 38 37 26 22 31 30 25 -22 -37 -38 -25 -21 -30 hvcurveto
          endchar
        </CharString>
        <CharString name="uni030B">
          752 -20 hstem
          -81 263 vstem
          -50 -22 callsubr
        </CharString>
        <CharString name="uni030B.cap">
          722 -20 hstem
          -87 274 vstem
          -57 707 32 callgsubr
          177 -15 32 callgsubr
          endchar
        </CharString>
        <CharString name="uni030C">
          573 43 hstem
          -141 282 vstem
          -25 -86 callgsubr
          endchar
        </CharString>
        <CharString name="uni030C.cap">
          709 36 hstem
          -137 274 vstem
          -26 709 rmoveto
          52 hlineto
          111 113 -23 20 -112 -97 rlineto
          -4 hlineto
          -112 97 -23 -20 rlineto
          endchar
        </CharString>
        <CharString name="uni031E">
          -139 36 hstem
          -19 38 vstem
          -19 -245 rmoveto
          38 106 71 36 -180 -36 71 hlineto
          endchar
        </CharString>
        <CharString name="uni0327">
          -220 32 hstem
          26 44 vstem
          -79 -220 rmoveto
          96 5 53 27 54 vvcurveto
          40 -28 19 -44 10 vhcurveto
          30 67 rlineto
          -38 hlineto
          -42 -88 6 callsubr
          -17 -86 -5 vhcurveto
          endchar
        </CharString>
        <CharString name="uni032E">
          -231 38 hstem
          -150 15 callsubr
          vstem
          -231 vmoveto
          -27 callsubr
          -85 callgsubr
          -26 callgsubr
          endchar
        </CharString>
        <CharString name="uni0331">
          18 callsubr
          hstem
          -125 250 vstem
          -125 -162 -69 callgsubr
        </CharString>
        <CharString name="uni0361">
          675 40 hstem
          -453 906 vstem
          -436 557 rmoveto
          79 126 156 39 154 hhcurveto
          154 156 -39 -79 126 hvcurveto
          17 29 rlineto
          82 -133 -147 47 -173 hhcurveto
          -173 -147 -47 -82 -133 hvcurveto
          endchar
        </CharString>
        <CharString name="uni0394.math">
          101 endchar
        </CharString>
        <CharString name="uni03A9.math">
          201 endchar
        </CharString>
        <CharString name="uni03BC.math">
          84 endchar
        </CharString>
        <CharString name="uni05B0">
          -230 62 32 60 15 callgsubr
          -76 rmoveto
          -97 callgsubr
          -92 vmoveto
          -62 callsubr
          endchar
        </CharString>
        <CharString name="uni05B1">
          -230 62 32 60 hstemhm
          35 57 -6 57 -4 57 47 57 hintmask 11101100
          64 -76 rmoveto
          -97 callgsubr
          104 hmoveto
          -97 callgsubr
          104 hmoveto
          -97 callgsubr
          hintmask 11010100
          -157 -92 rmoveto
          -62 callsubr
          157 hmoveto
          -62 callsubr
          endchar
        </CharString>
        <CharString name="uni05B2">
          -230 62 32 60 -43 34 hstemhm
          35 156 41 57 hintmask 00000000
          hintmask 11011000
          261 -76 rmoveto
          -97 callgsubr
          hintmask 10111000
          -70 -9 26 callgsubr
          156 hlineto
          70 -49 rmoveto
          -62 callsubr
          endchar
        </CharString>
        <CharString name="uni05B3">
          -230 62 32 60 -43 34 hstemhm
          98 29 105 57 hintmask 00000000
          hintmask 11011000
          261 -76 rmoveto
          -97 callgsubr
          hintmask 10111000
          -70 -9 26 callgsubr
          67 hlineto
          -8 -100 rlineto
          37 hlineto
          -8 100 rlineto
          68 hlineto
          70 -49 rmoveto
          -62 callsubr
          endchar
        </CharString>
        <CharString name="uni05B4">
          -136 60 15 callgsubr
          -76 rmoveto
          -97 callgsubr
          endchar
        </CharString>
        <CharString name="uni05B5">
          -136 60 hstem
          35 57 50 57 vstem
          64 -76 rmoveto
          -97 callgsubr
          107 hmoveto
          -97 callgsubr
          endchar
        </CharString>
        <CharString name="uni05B6">
          -220 61 23 60 hstemhm
          35 57 -4 57 -3 57 hintmask 01101000
          64 -76 rmoveto
          -97 callgsubr
          107 hmoveto
          -97 callgsubr
          hintmask 11010000
          -54 -83 rmoveto
          -17 -12 -15 -14 -17 12 -15 17 17 11 15 17 14 -58 callgsubr
        </CharString>
        <CharString name="uni05B7">
          -103 34 hstem
          35 156 vstem
          191 -69 26 callgsubr
          156 hlineto
          endchar
        </CharString>
        <CharString name="uni05B8">
          -103 34 hstem
          98 29 vstem
          191 -69 26 callgsubr
          67 hlineto
          -8 -100 rlineto
          37 hlineto
          -8 100 rlineto
          68 hlineto
          endchar
        </CharString>
        <CharString name="uni05B9">
          509 61 15 callgsubr
          570 -2 callgsubr
          endchar
        </CharString>
        <CharString name="uni05BA">
          509 61 15 callgsubr
          509 rmoveto
          17 11 15 16 -45 callsubr
          -17 -12 -15 -15 -16 12 -15 17 hvcurveto
          endchar
        </CharString>
        <CharString name="uni05BB">
          -253 60 -2 61 -2 60 hstemhm
          35 57 8 57 8 58 hintmask 10110100
          64 -76 rmoveto
          -97 callgsubr
          hintmask 01011100
          65 -58 rmoveto
          -17 -12 -15 -15 -35 callsubr
          15 -17 hvcurveto
          hintmask 10110100
          65 -59 rmoveto
          -16 -13 -14 -16 -16 13 -14 16 17 12 14 16 16 -12 14 -17 hvcurveto
          endchar
        </CharString>
        <CharString name="uni05BC">
          260 61 15 callgsubr
          321 rmoveto
          -9 callgsubr
          -17 12 -14 17 17 11 14 17 15 -58 callgsubr
        </CharString>
        <CharString name="uni05BE">
          -151 -5 callsubr
          45 221 vstem
          45 505 rmoveto
          221 45 -221 hlineto
          endchar
        </CharString>
        <CharString name="uni05BF">
          535 35 hstem
          32 189 vstem
          221 570 rmoveto
          -189 -35 189 hlineto
          endchar
        </CharString>
        <CharString name="uni05C1">
          -29 callsubr
        </CharString>
        <CharString name="uni05C2">
          -29 callsubr
        </CharString>
        <CharString name="uni05C7">
          -103 34 hstem
          68 25 vstem
          127 -69 rmoveto
          -92 -34 39 hlineto
          -12 -100 rlineto
          37 hlineto
          -12 100 rlineto
          40 hlineto
          endchar
        </CharString>
        <CharString name="uni05D0">
          79 0 550 hstem
          36 467 -94 callsubr
          endchar
        </CharString>
        <CharString name="uni05D1">
          59 14 callgsubr
          352 -42 callgsubr
          endchar
        </CharString>
        <CharString name="uni05D2">
          -107 -13 574 hstem
          216 -55 callgsubr
          endchar
        </CharString>
        <CharString name="uni05D3">
          72 -5 callsubr
          320 -25 callgsubr
          endchar
        </CharString>
        <CharString name="uni05D4">
          75 -5 callsubr
          63 55 291 -43 callsubr
          endchar
        </CharString>
        <CharString name="uni05D5">
          -249 0 550 hstem
          83 55 vstem
          83 hmoveto
          -18 callgsubr
          endchar
        </CharString>
        <CharString name="uni05D6">
          -93 -5 callsubr
          146 -25 callsubr
          endchar
        </CharString>
        <CharString name="uni05D7">
          91 -5 callsubr
          67 54 303 54 vstem
          312 550 rmoveto
          -245 -13 hlineto
          -537 54 505 181 vlineto
          81 41 -54 -102 hvcurveto
          -349 54 348 vlineto
          135 -59 67 -107 vhcurveto
          endchar
        </CharString>
        <CharString name="uni05D8">
          79 510.5 45.5 -44 -20 hstemhm
          438 53 hintmask 01100000
          4 callsubr
          hintmask 10100000
          27 callgsubr
          hintmask 01100000
          -4 -46 rlineto
          hintmask 10100000
          -19 callgsubr
          endchar
        </CharString>
        <CharString name="uni05D9">
          -249 210 340 hstem
          83 -16 callgsubr
          endchar
        </CharString>
        <CharString name="uni05DA">
          38 -5 callsubr
          371 -23 callgsubr
          endchar
        </CharString>
        <CharString name="uni05DB">
          5 14 callgsubr
          352 -52 callsubr
          endchar
        </CharString>
        <CharString name="uni05DC">
          7 -5 callsubr
          46 52 266 55 vstem
          -20 callgsubr
          endchar
        </CharString>
        <CharString name="uni05DD">
          114 14 callgsubr
          83 54 310 55 vstem
          335 550 rmoveto
          -198 hlineto
          -54 -550 15 hlineto
          349 hlineto
          -34 callgsubr
          -198 -504 rmoveto
          459 189 vlineto
          72 49 -35 -104 hvcurveto
          -320 vlineto
          endchar
        </CharString>
        <CharString name="uni05DE">
          20 callsubr
          474.18 46 hstem
          485 -69 callsubr
          endchar
        </CharString>
        <CharString name="uni05DF">
          -249 -200 750 hstem
          83 55 vstem
          83 -200 rmoveto
          55 633 hlineto
          -46 callsubr
          endchar
        </CharString>
        <CharString name="uni05E0">
          -99 0 46 hstem
          235 -33 callgsubr
          endchar
        </CharString>
        <CharString name="uni05E1">
          89 -10 52 463 45 hstem
          444 -66 callsubr
          endchar
        </CharString>
        <CharString name="uni05E2">
          58 -25 575 hstem
          410 54 vstem
          410 550 rmoveto
          -298 -8 -116 -134 -61 vhcurveto
          -128 475 -4 callgsubr
          134 -493 -7 -3 -8 -2 -8 -2 rlinecurve
          -159 -32 7 -43 152 30 rlineto
          245 59 22 120 366 vvcurveto
          endchar
        </CharString>
        <CharString name="uni05E3">
          80 -5 callsubr
          68.32 50.61 293.06999 -58 callsubr
          endchar
        </CharString>
        <CharString name="uni05E4">
          73 14 callgsubr
          69.35 50.14 302.51 -66 callgsubr
          endchar
        </CharString>
        <CharString name="uni05E5">
          -19 -200 750 hstem
          51 368 vstem
          419 550 rmoveto
          -53 hlineto
          -140 -360 -121 360 -4 callgsubr
          250 -750 rlineto
          56 hlineto
          -108 321 rlineto
          endchar
        </CharString>
        <CharString name="uni05E6">
          40 0 46 hstem
          42 414 -39 callgsubr
          endchar
        </CharString>
        <CharString name="uni05E7">
          73 -5 callsubr
          63 55 -53 callsubr
          endchar
        </CharString>
        <CharString name="uni05E8">
          5 -5 callsubr
          338 -20 callsubr
          endchar
        </CharString>
        <CharString name="uni05E9">
          25 callsubr
          hstem
          279 22 callsubr
          vstem
          554 414 rmoveto
          -1 136 rlineto
          -103 callgsubr
          endchar
        </CharString>
        <CharString name="uni05EA">
          133 -13 41 477 45 hstem
          132 54 284 -49 callsubr
          endchar
        </CharString>
        <CharString name="uni1E06">
          118 18 callsubr
          122 9 callgsubr
          hintmask 11111010
          -4 callsubr
          hintmask 11111100
          -48 callgsubr
          hintmask 11111010
          27 callsubr
          -107 -206 -69 callgsubr
        </CharString>
        <CharString name="uni1E07">
          82 18 callsubr
          110 -76 callsubr
          -126 -195 -69 callgsubr
        </CharString>
        <CharString name="uni1E0C">
          144 -9 callsubr
          111 45 569 45 11 callgsubr
          111 82 155 -79 callsubr
          55 -242 -2 callsubr
          endchar
        </CharString>
        <CharString name="uni1E0D">
          84 -9 callsubr
          99 -40 callsubr
          37 callgsubr
          hstem
          51 54 147 82 70 -94 callgsubr
          34 -230 -2 callsubr
          endchar
        </CharString>
        <CharString name="uni1E0E">
          144 18 callsubr
          122 45 569 45 11 callgsubr
          348 -79 callsubr
          -70 -207 -69 callgsubr
        </CharString>
        <CharString name="uni1E0F">
          84 18 callsubr
          110 -40 callsubr
          37 callgsubr
          hstem
          51 54 299 -94 callgsubr
          -91 -195 -69 callgsubr
        </CharString>
        <CharString name="uni1E20">
          -18 callsubr
          70 40 21 callsubr
          220 -28 callgsubr
          120 -793 -100 callgsubr
        </CharString>
        <CharString name="uni1E21">
          -44 callgsubr
          112 40 -12 callsubr
          hintmask 1111010101000000
          128 -28 callsubr
          hintmask 1111011001100000
          121 -875 -97 callsubr
        </CharString>
        <CharString name="uni1E24">
          179 -9 callsubr
          437 46 287 -20 11 callgsubr
          130 82 131 53 vstem
          -44 callsubr
          224 -856 -2 callsubr
          endchar
        </CharString>
        <CharString name="uni1E25">
          69 -9 callsubr
          559 45 37 callgsubr
          17 callsubr
          100 82 76 52 vstem
          -87 callgsubr
          193 -915 -2 callsubr
          endchar
        </CharString>
        <CharString name="uni1E2A">
          179 -231 38 519 46 287 -20 hstemhm
          96 53 21 15 callsubr
          22 53 hintmask 11110010
          -44 callsubr
          hintmask 11111110
          224 -890 23 callgsubr
          -85 callgsubr
          -26 callgsubr
          endchar
        </CharString>
        <CharString name="uni1E2B">
          69 -231 38 641 45 37 callgsubr
          hstemhm
          90 52 -9 15 callsubr
          -33 52 hintmask 11110010
          -87 callgsubr
          hintmask 11101100
          193 -949 23 callgsubr
          -85 callgsubr
          -26 callgsubr
          endchar
        </CharString>
        <CharString name="uni1E32">
          100 -9 callsubr
          770 -20 11 callgsubr
          135 82 -70 callsubr
          229 -856 -2 callsubr
          endchar
        </CharString>
        <CharString name="uni1E33">
          7 -9 callsubr
          829 -20 hstem
          90 51 78 82 -68 callgsubr
          170 -915 -2 callsubr
          endchar
        </CharString>
        <CharString name="uni1E34">
          100 18 callsubr
          781 -20 11 callgsubr
          -70 callsubr
          104 -821 -69 callgsubr
        </CharString>
        <CharString name="uni1E35">
          7 18 callsubr
          840 -20 hstem
          90 51 -68 callgsubr
          45 -880 -69 callgsubr
        </CharString>
        <CharString name="uni1E62">
          61 -9 callsubr
          99 24 callgsubr
          96 82 118 54 vstem
          270 -12 -102 callsubr
          -185 vmoveto
          -104 callgsubr
          endchar
        </CharString>
        <CharString name="uni1E63">
          -54 -9 callsubr
          99 43 420 42 hstem
          54 51 72 82 63 51 vstem
          209 -12 -101 callgsubr
          9 -185 -2 callsubr
          endchar
        </CharString>
        <CharString name="uni1E6C">
          65 -9 callsubr
          724 46 hstemhm
          222 82 -67 53 hintmask 01010000
          -23 callsubr
          hintmask 11100000
          26 -810 -2 callsubr
          endchar
        </CharString>
        <CharString name="uni1E6D">
          -145 -9 callsubr
          99 35 callsubr
          hstemhm
          102 51 5 82 hintmask 01110000
          225 -12 -93 callsubr
          hintmask 11101000
          -26 -185 -2 callsubr
          endchar
        </CharString>
        <CharString name="uni1E6E">
          65 18 callsubr
          735 46 hstem
          237 53 vstem
          -23 callsubr
          -99 -775 -69 callgsubr
        </CharString>
        <CharString name="uni1E6F">
          -145 18 callsubr
          110 35 callsubr
          hstem
          102 51 vstem
          225 -12 -93 callsubr
          -151 -150 -69 callgsubr
        </CharString>
        <CharString name="uni1E7E">
          33 -9 callsubr
          111 59 600 -20 hstem
          209 82 -43 callgsubr
          246 -856 -2 callsubr
          endchar
        </CharString>
        <CharString name="uni1E7F">
          -22 -9 callsubr
          111 46 hstem
          180 82 -36 callgsubr
          209 -678 -2 callsubr
          endchar
        </CharString>
        <CharString name="uni1E92">
          77 -9 callsubr
          111 45 568 46 hstem
          241 82 vstem
          49 hmoveto
          -64 callsubr
          233 -228 -2 callsubr
          endchar
        </CharString>
        <CharString name="uni1E93">
          -54 -9 callsubr
          111 29 callsubr
          178 82 vstem
          28 hmoveto
          -64 callgsubr
          191 -224 -2 callsubr
          endchar
        </CharString>
        <CharString name="uni1E94">
          77 18 callsubr
          122 45 568 46 hstem
          49 443 vstem
          49 hmoveto
          -64 callsubr
          108 -193 -69 callgsubr
        </CharString>
        <CharString name="uni1E95">
          -54 18 callsubr
          122 29 callsubr
          28 354 vstem
          28 hmoveto
          -64 callgsubr
          66 -189 -69 callgsubr
        </CharString>
        <CharString name="uni1E96">
          69 18 callsubr
          570 45 37 callgsubr
          17 callsubr
          258 52 vstem
          -87 callgsubr
          68 -880 -69 callgsubr
        </CharString>
        <CharString name="uni1EA0">
          68 -9 callsubr
          332 44 345 49 hstem
          223 82 vstem
          523 hmoveto
          -231 659 rlineto
          -55 hlineto
          -230 -659 rlineto
          54 hlineto
          75 221 rlineto
          256 hlineto
          74 -221 rlineto
          -316 265 rmoveto
          41 119 26 77 23 70 22 79 rlinecurve
          4 hlineto
          23 -79 23 -70 26 -77 40 -119 rcurveline
          -114 -376 -36 callsubr
          endchar
        </CharString>
        <CharString name="uni1EA1">
          31 -9 callsubr
          99 44 417 44 hstem
          57 52 95 82 78 52 vstem
          197 -12 -107 callgsubr
          38 -229 -2 callsubr
          endchar
        </CharString>
        <CharString name="uni1EB8">
          55 -9 callsubr
          111 31 callgsubr
          100 82 vstem
          96 hmoveto
          -91 callgsubr
          194 -856 -2 callsubr
          endchar
        </CharString>
        <CharString name="uni1EB9">
          23 -9 callsubr
          99 38 callsubr
          50 111 82 106 48 vstem
          448 270 -106 callgsubr
          -147 -384 -36 callsubr
          endchar
        </CharString>
        <CharString name="uni1ECC">
          193 -9 callsubr
          99 21 callgsubr
          176 82 177 55 vstem
          327 -12 rmoveto
          -107 callsubr
          -233 vmoveto
          -104 callgsubr
          endchar
        </CharString>
        <CharString name="uni1ECD">
          74 -9 callsubr
          99 -40 callsubr
          37 callsubr
          123 82 123 54 vstem
          268 -12 rmoveto
          -105 callgsubr
          -230 vmoveto
          -104 callgsubr
          endchar
        </CharString>
        <CharString name="uni200E">
          24 callsubr
          -114 258 5 callgsubr
          -191 -36 191 hlineto
          -63 -66 rlineto
          endchar
        </CharString>
        <CharString name="uni200F">
          24 callsubr
          -144 260 30 callsubr
          192 36 -193 39 callgsubr
          endchar
        </CharString>
        <CharString name="uni2010">
          -61 callsubr
        </CharString>
        <CharString name="uni2010.lat">
          -61 callsubr
        </CharString>
        <CharString name="uni202D">
          24 callsubr
          -156 327 vstem
          -31 767 rmoveto
          104 108 -104 109 -26 -27 61 -63 rlineto
          -160 -36 162 hlineto
          -63 -66 rlineto
          123 -25 rmoveto
          105 108 -105 109 -25 -27 82 -82 -82 -83 rlineto
          endchar
        </CharString>
        <CharString name="uni202E">
          895 34 hstem
          -171 328 vstem
          -66 805 rmoveto
          25 26 -80 83 80 81 -25 26 -105 -107 rlineto
          202 -109 rmoveto
          28 26 -63 64 rlineto
          161 34 -161 hlineto
          63 66 -28 26 -102 -107 rlineto
          endchar
        </CharString>
        <CharString name="uni210A">
          86 -227 43 185 44 404 44 hstem
          52 54 299 52 vstem
          259 -227 rmoveto
          125 73 74 115 hvcurveto
          519 -45 vlineto
          -5 -44 rlineto
          -2 hlineto
          35 -43 -40 -1 callsubr
          -95 -152 -157 79 -88 120 63 53 34 39 39 hvcurveto
          -1 -107 rlineto
          -93 -1 -49 -58 -96 hhcurveto
          -50 -50 14 35 -48 hvcurveto
          -22 -39 rlineto
          -33 48 58 -20 64 hhcurveto
          1 272 rmoveto
          -99 -55 81 121 115 71 87 92 46 41 -17 -43 49 hvcurveto
          -267 vlineto
          -50 -49 -45 -27 -51 hhcurveto
          endchar
        </CharString>
        <CharString name="uni2215">
          -80 callsubr
        </CharString>
        <CharString name="uni2215.lat">
          -80 callsubr
        </CharString>
        <CharString name="uni2219">
          27 275 98 hstem
          194 91 vstem
          239 275 rmoveto
          -65 callsubr
        </CharString>
        <CharString name="uniFB2A">
          25 callsubr
          582 62 hstemhm
          279 22 callsubr
          -52.5 57 hintmask 00000000
          hintmask 11101000
          530 -56 callgsubr
          hintmask 10110000
          23 -72 rmoveto
          -103 callgsubr
          endchar
        </CharString>
        <CharString name="uniFB2B">
          25 callsubr
          582 62 hstem
          47 57 175 22 callsubr
          vstem
          76 -56 callgsubr
          478 -208 rmoveto
          -1 136 rlineto
          -103 callgsubr
          endchar
        </CharString>
        <CharString name="uniFB2C">
          25 callsubr
          217 62 303 62 hstemhm
          279 7 callgsubr
          -52.5 57 hintmask 00000000
          hintmask 10110010
          530 -56 callgsubr
          hintmask 10010100
          23 -72 rmoveto
          -103 callgsubr
          hintmask 11011100
          -183 -157 -56 callsubr
        </CharString>
        <CharString name="uniFB2D">
          25 callsubr
          217 62 303 62 hstemhm
          47 57 175 7 callgsubr
          hintmask 10111010
          76 -56 callgsubr
          478 -208 rmoveto
          -1 136 rlineto
          -103 callgsubr
          hintmask 11111110
          -183 -157 -56 callsubr
        </CharString>
        <CharString name="uniFB2E">
          79 -94 34 hstem
          194 156 -94 callsubr
          -93 -60 26 callgsubr
          156 hlineto
          endchar
        </CharString>
        <CharString name="uniFB2F">
          79 -94 34 hstem
          257 29 -94 callsubr
          -93 -60 26 callgsubr
          67 hlineto
          -8 -100 rlineto
          37 hlineto
          -8 100 rlineto
          68 hlineto
          endchar
        </CharString>
        <CharString name="uniFB30">
          79 97 62 hstem
          211 57 -94 callsubr
          -203 159 -103 callsubr
        </CharString>
        <CharString name="uniFB31">
          59 39 callsubr
          161 57 134 -42 callgsubr
          -261 252 -38 callgsubr
        </CharString>
        <CharString name="uniFB32">
          -107 266 62 hstem
          65 57 94 -55 callgsubr
          -160 266 -56 callsubr
        </CharString>
        <CharString name="uniFB33">
          72 -21 callsubr
          157 57 106 -25 callgsubr
          -134 -60 -103 callsubr
        </CharString>
        <CharString name="uniFB34">
          75 -21 callsubr
          63 55 122 57 112 -43 callsubr
          206 59 -103 callsubr
        </CharString>
        <CharString name="uniFB35">
          -249 266 62 hstem
          -29 57 55 55 vstem
          83 hmoveto
          -18 callgsubr
          -83 -105 -103 callsubr
        </CharString>
        <CharString name="uniFB36">
          -93 -21 callsubr
          36 57 53 -25 callsubr
          -81 -60 -103 callsubr
        </CharString>
        <CharString name="uniFB38">
          79 269 62 179.5 45.5 -44 -20 hstemhm
          249 57 132 53 hintmask 10101000
          4 callsubr
          hintmask 11001000
          27 callgsubr
          hintmask 10101000
          -4 -46 rlineto
          hintmask 11011000
          -19 callgsubr
          226 -219 -103 callsubr
        </CharString>
        <CharString name="uniFB39">
          -249 356 62 hstem
          -20 57 46 -16 callgsubr
          -74 -15 -103 callsubr
        </CharString>
        <CharString name="uniFB3A">
          38 -21 callsubr
          163 57 151 -23 callgsubr
          -179 -38 -103 callsubr
        </CharString>
        <CharString name="uniFB3B">
          5 39 callsubr
          158 57 137 -52 callsubr
          137 282 -103 callsubr
        </CharString>
        <CharString name="uniFB3C">
          7 266 62 177 45 hstemhm
          46 52 6 57 203 55 hintmask 01101000
          -20 callgsubr
          hintmask 11011000
          -286 -222 -103 callsubr
        </CharString>
        <CharString name="uniFB3E">
          20 callsubr
          231.18 62 181 46 hstem
          296 57 132 -69 callsubr
          -185 -1 -38 callgsubr
        </CharString>
        <CharString name="uniFB40">
          -99 0 46 220 62 hstem
          77 57 101 -33 callgsubr
          54 282 -103 callsubr
        </CharString>
        <CharString name="uniFB41">
          89 -10 52 226 62 175 45 hstem
          247 57 140 -66 callsubr
          108 288 -103 callsubr
        </CharString>
        <CharString name="uniFB43">
          80 -21 callsubr
          68.32 50.61 140.06999 57 96 -58 callsubr
          17 -222 -103 callsubr
        </CharString>
        <CharString name="uniFB44">
          73 0 46 219 62 178 45 hstem
          69.35 50.14 135.51 57 110 -66 callgsubr
          201 281 -103 callsubr
        </CharString>
        <CharString name="uniFB46">
          40 0 46 100 62 hstem
          124 57 -39 callgsubr
          -275 178 -38 callgsubr
        </CharString>
        <CharString name="uniFB47">
          73 269 62 174 45 hstem
          63 55 123 57 -53 callsubr
          207 45 -103 callsubr
        </CharString>
        <CharString name="uniFB48">
          5 -21 callsubr
          133 57 148 -20 callsubr
          -176 -38 -103 callsubr
        </CharString>
        <CharString name="uniFB49">
          25 callsubr
          217 62 hstemhm
          279 7 callgsubr
          hintmask 10101000
          554 414 rmoveto
          -1 136 rlineto
          -103 callgsubr
          hintmask 11111000
          -183 -157 -56 callsubr
        </CharString>
        <CharString name="uniFB4A">
          133 -13 41 238 62 177 45 hstem
          132 54 109 57 118 -49 callsubr
          300 300 -103 callsubr
        </CharString>
        <CharString name="uniFB4B">
          -249 613 61 hstemhm
          57 57 -31 55 hintmask 00000000
          hintmask 11000000
          86 674 -2 callgsubr
          hintmask 10100000
          -3 -674 rmoveto
          -18 callgsubr
          endchar
        </CharString>
        <CharString name="upsilonlatin">
          71 -12 45 404 44 hstemhm
          41 172 -160 53 215 171 -65 53 hintmask 11010100
          267 -12 rmoveto
          135 78 108 117 108 -49 73 -44 41 hvcurveto
          2 vlineto
          hintmask 11011000
          105 44 -171 -33 hlineto
          hintmask 11010100
          60 -45 46 -73 -106 vvcurveto
          -101 -56 -90 -104 -105 -56 90 101 106 46 73 61 45 vhcurveto
          hintmask 11100100
          33 -172 -44 vlineto
          hintmask 11010100
          105 -2 hlineto
          -44 -41 -49 -73 -108 vvcurveto
          -117 78 -108 136 vhcurveto
          endchar
        </CharString>
        <CharString name="v">
          -22 0 46 hstem
          12 416 -36 callgsubr
          endchar
        </CharString>
        <CharString name="w">
          229 0 46 383 52 hstem
          24 643 vstem
          164 hmoveto
          62 hlineto
          80 290 15 46 11 46 11 47 rlinecurve
          4 hlineto
          13 -47 10 -45 13 -46 82 -291 rcurveline
          66 hlineto
          136 481 rlineto
          -51 hlineto
          -82 -305 -12 -45 -10 -41 -12 -44 rlinecurve
          -4 hlineto
          -11 44 -12 41 -12 45 -85 305 rcurveline
          -58 hlineto
          -85 -305 -35 -130 rlineto
          -4 hlineto
          -9 44 -11 41 -12 45 -84 305 rcurveline
          -54 hlineto
          endchar
        </CharString>
        <CharString name="x">
          -48 0 481 hstem
          14 386 vstem
          14 hmoveto
          54 hlineto
          79 128 19 30 17 30 18 28 rlinecurve
          4 hlineto
          20 -28 19 -30 17 -30 83 -128 rcurveline
          56 hlineto
          -162 247 149 234 -4 callgsubr
          -71 -119 -17 -26 -15 -27 -17 -26 rlinecurve
          -4 hlineto
          -17 26 -18 27 -15 26 -75 119 rcurveline
          -57 hlineto
          149 -229 rlineto
          endchar
        </CharString>
        <CharString name="y">
          -20 -217 46 hstem
          12 418 vstem
          76 -217 -92 callsubr
        </CharString>
        <CharString name="yacute">
          -20 -217 46 896 -15 callgsubr
          12 418 vstem
          206 -75 callsubr
          -102 -817 -92 callsubr
        </CharString>
        <CharString name="ydieresis">
          -20 -217 46 767 78 hstem
          103 78 102 78 vstem
          142 -98 callsubr
          -246 -813 -92 callsubr
        </CharString>
        <CharString name="yen">
          -72 callgsubr
        </CharString>
        <CharString name="yen.heb">
          78 endchar
        </CharString>
        <CharString name="yen.lat">
          -72 callgsubr
        </CharString>
        <CharString name="z">
          -54 0 29 callsubr
          28 354 vstem
          28 hmoveto
          -64 callgsubr
          endchar
        </CharString>
        <CharString name="zcaron">
          -54 0 44 393 44 92 43 hstem
          28 354 vstem
          198 -86 callgsubr
          -54 -716 rmoveto
          -64 callgsubr
          endchar
        </CharString>
        <CharString name="zero">
          -92 callgsubr
        </CharString>
        <CharString name="zero.heb">
          -92 callgsubr
        </CharString>
        <CharString name="zero.lat">
          -92 callgsubr
        </CharString>
        <CharString name="zero.pnumheb">
          47 endchar
        </CharString>
        <CharString name="zero.pnumlat">
          41 endchar
        </CharString>
        <CharString name="zero.slash">
          38 endchar
        </CharString>
        <CharString name="zero.slashpnum">
          38 endchar
        </CharString>
      <CharString index="0">
        rmoveto
        62 58 34 40 48 26 callsubr
        6 -62 rlineto
        43 305 hlineto
        106 -41 82 -115 -78 -66 -37 -25 -36 vhcurveto
        22 -37 rlineto
        24 33 55 31 64 hhcurveto
        91 21 -75 -72 -2 hvcurveto
        -212 -23 -95 -52 -106 vvcurveto
        -90 63 -43 77 vhcurveto
        10 44 rmoveto
        -54 -44 25 67 74 65 44 190 23 hvcurveto
        -159 vlineto
        -48 -57 -46 -26 -54 hhcurveto
        return
      </CharString>
      <CharString index="1">
        rmoveto
        141 -70 82 -116 -109 -102 -96 -157 -158 100 -94 124 69 45 23 25 39 vhcurveto
        -20 37 rlineto
        -25 -36 -41 -17 -51 hhcurveto
        -97 -79 73 128 -3 hvcurveto
        344 hlineto
        2 12 1 13 13 vvcurveto
        -345 3 rmoveto
        120 11 76 57 72 hhcurveto
        85 53 -59 -118 hvcurveto
        return
      </CharString>
      <CharString index="2">
        116 102 93 159 161 -102 92 -116 -116 -101 -24 callsubr
        101 -93 116 hvcurveto
        45 vmoveto
        -94 -70 83 124 123 70 86 94 95 69 -86 -123 -124 -69 -83 -95 hvcurveto
        return
      </CharString>
      <CharString index="3">
        23 18 18 26 24 -18 18 -23 -23 -18 -18 -24 -26 18 -18 23 hvcurveto
        return
      </CharString>
      <CharString index="4">
        -54 hlineto
        1 -137 2 -247 -124 -112 -211 -14 rlinecurve
        -20 168 128 62 52 72 5 149 rlinecurve
        57 -53 -58 vlineto
        -4 -130 -37 -53 -97 -53 -36 296 rcurveline
        -53 hlineto
        69 -560 286 6 149 133 -2 285 rlinecurve
        return
      </CharString>
      <CharString index="5">
        20 -12 42 580 41 hstemhm
        40 50 -14 49 246 48 -30 52 hintmask 11100100
        244 -12 rmoveto
        118 79 74 94 86 -57 43 -55 34 hvcurveto
        4 vlineto
        hintmask 11011000
        37 29 53 62 70 vvcurveto
        96 -64 71 -110 -95 -74 -64 -94 -67 44 -48 46 -31 vhcurveto
        -4 vlineto
        hintmask 11100100
        -60 -32 -66 -61 -86 vvcurveto
        -101 86 -75 118 vhcurveto
        hintmask 11011000
        47 349 rmoveto
        -82 33 -84 35 88 vvcurveto
        68 50 49 70 80 46 -59 -69 -54 -28 -48 -52 -43 vhcurveto
        hintmask 11100100
        -46 -307 rmoveto
        -90 -65 60 77 67 46 53 62 37 hvcurveto
        98 -39 93 -33 -95 vvcurveto
        -72 -57 -55 -87 vhcurveto
        endchar
      </CharString>
      <CharString index="6">
        rmoveto
        106 58 64 73 94 -81 25 -74 28 hvcurveto
        -57 21 -56 20 54 vvcurveto
        42 33 42 73 47 34 -20 -24 33 vhcurveto
        26 36 rlineto
        28 -35 -51 22 -54 hhcurveto
        -101 -56 -59 -70 -82 80 -31 72 -25 hvcurveto
        55 -20 61 -26 -58 vvcurveto
        -49 -38 -42 -73 -67 -43 26 34 -41 vhcurveto
        -28 -36 rlineto
        -37 43 63 -30 71 hhcurveto
        return
      </CharString>
      <CharString index="7">
        rmoveto
        87 68 31 44 41 hvcurveto
        264 -204 -45 154 -199 vlineto
        -30 -31 -54 -17 -57 hhcurveto
        -148 -86 115 180 179 91 113 148 70 46 -30 -37 34 hvcurveto
        30 35 rlineto
        38 -36 -56 42 -89 hhcurveto
        -174 -120 -131 -210 -210 116 -132 170 hvcurveto
        endchar
      </CharString>
      <CharString index="8">
        20 -12 43 314 41 221 44 hstem
        52 50 287 51 vstem
        261 386 rmoveto
        -58 -58 -34 -53 -43 hvcurveto
        229 2 85 79 99 hhcurveto
        41 39 -19 -34 28 hvcurveto
        31 34 rlineto
        37 -34 -44 26 -61 hhcurveto
        -124 -112 -95 -265 -196 83 -107 127 96 82 83 118 129 -67 68 -112 hvcurveto
        2 -355 rmoveto
        -99 -52 86 133 -9 hvcurveto
        68 51 57 27 44 hhcurveto
        93 41 -66 -90 -90 -54 -68 -72 hvcurveto
        endchar
      </CharString>
      <CharString index="9">
        rmoveto
        117 108 62 206 hvcurveto
        403 -51 -399 vlineto
        -172 -81 -52 -93 -92 -79 52 172 vhcurveto
        399 -53 -403 vlineto
        -206 106 -62 118 vhcurveto
        endchar
      </CharString>
      <CharString index="10">
        -17 -12 -14 -16 -16 12 -14 17 17 11 14 16 16 -11 14 -17 hvcurveto
        return
      </CharString>
      <CharString index="11">
        20 -12 45 327 43 191 45 hstem
        381 53 vstem
        228 -12 rmoveto
        105 101 77 137 139 -87 62 -108 -46 -33 -13 -19 -32 hvcurveto
        20 223 rlineto
        253 45 -299 hlineto
        -23 -300 33 -21 rlineto
        26 38 31 16 48 hhcurveto
        92 60 -61 -99 -101 -71 -66 -84 -85 -49 37 40 -38 hvcurveto
        -29 -35 rlineto
        -42 42 59 -45 102 hhcurveto
        endchar
      </CharString>
      <CharString index="12">
        280 -11 32 104 40 304 41 110 33 hstem
        51 37 113 47 406 37 vstem
        371 -11 rmoveto
        173 147 131 203 201 -147 129 -173 -173 -147 -129 -201 -203 147 -131 173 hvcurveto
        32 vmoveto
        -153 -130 121 181 178 130 119 153 153 130 -119 -178 -181 -130 -121 -153 hvcurveto
        5 104 rmoveto
        64 37 26 32 36 hvcurveto
        -21 31 rlineto
        -28 -31 -35 -21 -47 hhcurveto
        -79 -52 60 97 88 55 59 78 40 26 -15 -29 30 hvcurveto
        25 30 rlineto
        32 -32 -35 23 -54 hhcurveto
        -95 -85 -71 -117 -125 80 -72 95 hvcurveto
        endchar
      </CharString>
      <CharString index="13">
        52 vstem
        250 -12 rmoveto
        63 53 34 39 39 26 callsubr
        6 -61 rlineto
        43 718 -52 -196 hlineto
        3 -87 rlineto
        37 -47 -39 -1 callsubr
        -98 -155 -162 79 -90 120 hvcurveto
        9 45 rmoveto
        -99 -55 81 126 119 71 90 92 46 42 -17 -43 48 hvcurveto
        -279 vlineto
        -50 -48 -46 -27 -51 hhcurveto
        return
      </CharString>
      <CharString index="14">
        20 0 45 562 44 hstem
        353 52 vstem
        41 hmoveto
        396 45 -212 hlineto
        -35 -37 -2 -2 -36 hvcurveto
        173 182 115 122 125 vvcurveto
        109 -68 72 -114 -79 -57 -40 -55 -49 vhcurveto
        33 -31 rlineto
        47 38 51 35 57 hhcurveto
        94 42 -60 -78 -110 -106 -118 -206 -209 hvcurveto
        endchar
      </CharString>
      <CharString index="15">
        20 -12 44 576 43 hstem
        48 51 284 52 vstem
        241 -12 rmoveto
        123 71 121 213 212 -71 117 -123 -123 -70 -117 -212 -213 70 -121 123 hvcurveto
        44 vmoveto
        -86 -56 96 194 193 56 93 86 86 56 -93 -193 -194 -56 -96 -86 hvcurveto
        endchar
      </CharString>
      <CharString index="16">
        374 45 -321 281 261 46 -261 241 311 46 -364 hlineto
        return
      </CharString>
      <CharString index="17">
        20 188 43 338 70 hstem
        309 49 vstem
        452 231 rmoveto
        -94 408 -49 hlineto
        -292 -419 rlineto
        -32 292 -188 49 188 94 vlineto
        -375 43 rmoveto
        180 256 18 30 18 24 16 28 rlinecurve
        4 hlineto
        -2 -30 -2 -53 -30 vvcurveto
        -225 vlineto
        endchar
      </CharString>
      <CharString index="18">
        52 360 hlineto
        58 56 40 30 56 hhcurveto
        75 31 -47 -100 hvcurveto
        -301 52 308 vlineto
        124 -46 61 -100 -67 return
      </CharString>
      <CharString index="19">
        rmoveto
        86 60 35 59 51 hvcurveto
        -31 34 rlineto
        -53 -46 -50 -27 -67 hhcurveto
        -139 -86 115 180 179 88 113 140 60 47 -27 -40 35 hvcurveto
        31 35 rlineto
        41 -36 -60 39 -77 hhcurveto
        -168 -116 -131 -210 -210 115 -132 163 hvcurveto
        endchar
      </CharString>
      <CharString index="20">
        -73 callsubr
        -49 -37 -49 -50 vhcurveto
        2 105 rlineto
        206 -52 vlineto
        return
      </CharString>
      <CharString index="21">
        573 rmoveto
        50 hlineto
        116 143 -25 23 -114 -123 rlineto
        -4 hlineto
        -114 123 -25 -23 rlineto
        return
      </CharString>
      <CharString index="22">
        -36 6 rlineto
        -55 -8 -35 -61 -71 hhcurveto
        -71 -35 61 55 -8 hvcurveto
        -36 -6 rlineto
        return
      </CharString>
      <CharString index="23">
        20 -8 -21 107 45 377 44 hstem
        62 52 142 38 vstem
        439 142 rmoveto
        -26 33 -31 -28 -40 -22 -48 -2 rlinecurve
        377 vlineto
        42 -2 35 -19 30 -27 27 33 rcurveline
        -31 29 -42 28 -61 2 rrcurveto
        109 -38 -111 vlineto
        -107 -12 -87 -81 -138 vvcurveto
        -138 81 -82 113 -12 vhcurveto
        -108 38 107 vlineto
        56 3 49 25 40 36 rrcurveto
        -325 169 rmoveto
        101 58 71 84 14 vhcurveto
        -372 vlineto
        -88 13 -54 71 102 vvcurveto
        endchar
      </CharString>
      <CharString index="24">
        -178 -152 32 380 36 380 32 hstemhm
        35 74 4 48 hintmask 11101000
        224 -152 rmoveto
        36 32 -29 hlineto
        -60 -15 32 69 hvcurveto
        64 5 55 71 vvcurveto
        58 -12 35 -40 12 vhcurveto
        4 vlineto
        40 12 12 33 60 71 -5 55 64 vvcurveto
        69 15 32 60 vhcurveto
        29 32 -36 hlineto
        -75 -36 -27 -102 hvcurveto
        -73 8 -61 -70 vvcurveto
        hintmask 11110000
        -40 -17 -39 -69 vhcurveto
        -36 vlineto
        hintmask 11101000
        69 17 -39 -41 hvcurveto
        -69 -8 -61 -73 vvcurveto
        -102 36 -27 75 vhcurveto
        endchar
      </CharString>
      <CharString index="25">
        -102 hlineto
        -70 -20 27 33 31 17 20 20 17 hvcurveto
        -13 22 30 -7 26 hhcurveto
        95 75 70 99 49 -21 42 -29 26 hvcurveto
        109 42 -164 hlineto
        return
      </CharString>
      <CharString index="26">
        hvcurveto
        -91 callsubr
        return
      </CharString>
      <CharString index="27">
        -35 72.5 44.5 398 -57 callsubr
        154 134 -3 rlineto
        48 vlineto
        -134 -4 3 201 -3 201 -70 callgsubr
        -3 -201 3 -201 -134 4 rlineto
        -48 vlineto
        134 3 rlineto
        endchar
      </CharString>
      <CharString index="28">
        20 -11 44 574 43 hstem
        84 51 91 42 102 52 vstem
        422 155 rmoveto
        226 -287 -55 169 vvcurveto
        64 46 48 68 60 30 -23 -37 37 vhcurveto
        30 31 -35 37 -39 30 -64 5 rlinecurve
        99 -42 -99 vlineto
        -83 -10 -59 -62 -86 -201 286 51 -191 vvcurveto
        -70 -43 -48 -83 -67 -54 34 35 -39 vhcurveto
        -26 -36 39 -37 61 -35 68 -5 rlinecurve
        -99 42 99 vlineto
        90 9 64 62 95 vvcurveto
        endchar
      </CharString>
      <CharString index="29">
        396 35 263 36 hstem
        41 43 161 42 vstem
        138 396 rmoveto
        43 35 23 24 28 hvcurveto
        4 hlineto
        6 -39 rlineto
        33 199 hlineto
        77 -27 50 -77 -52 -49 -24 -18 -27 vhcurveto
        16 -31 rlineto
        17 24 43 20 40 hhcurveto
        53 14 -39 -49 hvcurveto
        -141 -14 -63 -34 -70 vvcurveto
        -58 40 -34 57 vhcurveto
        11 35 rmoveto
        -40 -25 19 41 43 41 30 120 13 hvcurveto
        -98 vlineto
        -33 -34 -32 -15 -30 hhcurveto
        endchar
      </CharString>
      <CharString index="30">
        rmoveto
        250 40 -250 hlineto
        return
      </CharString>
      <CharString index="31">
        20 594 45 hstem
        186 55 vstem
        186 hmoveto
        55 hlineto
        10 250 36 157 153 201 rrcurveto
        31 -396 -45 333 vlineto
        -128 -179 -53 -161 -10 -254 rrcurveto
        endchar
      </CharString>
      <CharString index="32">
        rmoveto
        138 160 rlineto
        42 vlineto
        -138 160 -26 -22 122 -159 -122 -160 rlineto
        return
      </CharString>
      <CharString index="33">
        -22 -17 -16 -23 -24 17 -15 22 hvcurveto
        return
      </CharString>
      <CharString index="34">
        -55 -12 98 552 44 hstem
        143 91 71 51 vstem
        162 183 rmoveto
        47 hlineto
        -19 150 166 60 135 vvcurveto
        89 -59 65 -98 -70 -52 -35 -44 -40 vhcurveto
        31 -28 rlineto
        39 33 46 24 47 hhcurveto
        76 35 -54 -59 -120 -164 -58 21 -164 hvcurveto
        27 -195 rmoveto
        24 21 19 29 31 -21 19 -24 -24 -22 -19 -31 -29 22 -19 24 hvcurveto
        endchar
      </CharString>
      <CharString index="35">
        20 164 36 70 36 333 -20 hstem
        215 51 vstem
        215 hmoveto
        51 164 167 36 -167 70 167 36 -151 hlineto
        172 333 rlineto
        -53 hlineto
        -91 -189 -23 -44 -19 -44 -25 -49 rlinecurve
        -4 hlineto
        -22 49 -21 44 -21 44 -91 189 rcurveline
        -56 hlineto
        171 -333 rlineto
        -150 -36 166 -70 -166 -36 166 hlineto
        endchar
      </CharString>
      <CharString index="36">
        40 vstem
        119 699 -65 callgsubr
        return
      </CharString>
      <CharString index="37">
        134 -4 rlineto
        48 vlineto
        -134 -3 3 154 rlineto
        -47 hlineto
        3 -154 -134 3 rlineto
        -48 vlineto
        134 4 return
      </CharString>
      <CharString index="38">
        -77 callgsubr
        endchar
      </CharString>
      <CharString index="39">
        vstem
        90 hmoveto
        51 130 hlineto
        105 123 156 -253 rlineto
        57 hlineto
        -183 290 157 191 rlineto
        -58 hlineto
        -232 -284 rlineto
        -2 521 -51 hlineto
        return
      </CharString>
      <CharString index="40">
        rmoveto
        26 21 -122 160 122 159 -26 22 -138 -160 rlineto
        -42 vlineto
        return
      </CharString>
      <CharString index="41">
        54 vstem
        83 hmoveto
        158 hlineto
        125 110 58 191 hvcurveto
        56 vlineto
        164 -74 81 -124 vhcurveto
        -164 hlineto
        -38 -162 -22 -111 28 -63 109 -16 rlinecurve
        14 42 -83 15 -14 44 19 86 rlinecurve
        29 120 rlineto
        115 hlineto
        102 49 -67 -133 hvcurveto
        -58 vlineto
        -159 -86 -42 -102 vhcurveto
        -151 hlineto
        return
      </CharString>
      <CharString index="42">
        30 callgsubr
        -26 21 -14 -90 callsubr
        return
      </CharString>
      <CharString index="43">
        354 44 -288 hlineto
        279 410 rlineto
        27 -314 -44 248 vlineto
        -279 -410 rlineto
        return
      </CharString>
      <CharString index="44">
        708 rmoveto
        52 hlineto
        111 114 -23 20 -112 -97 rlineto
        -4 hlineto
        -112 97 -23 -20 rlineto
        return
      </CharString>
      <CharString index="45">
        709 rmoveto
        89 41 64 61 8 hvcurveto
        -36 6 rlineto
        -50 -7 -32 -44 -63 hhcurveto
        -63 -31 44 50 -8 hvcurveto
        -36 -6 rlineto
        -61 8 41 -64 89 hhcurveto
        return
      </CharString>
      <CharString index="46">
        -197 -12 98 584 -20 hstemhm
        87 91 -67.5 44 hintmask 11010000
        114 183 rmoveto
        37 hlineto
        7 412 1 75 rlineto
        -53 hlineto
        1 -75 rlineto
        hintmask 11100000
        25 -607 rmoveto
        -65 callsubr
      </CharString>
      <CharString index="47">
        -178 -175 906 hstem
        87 44 vstem
        219 -175 rmoveto
        31 17 rlineto
        -79 126 -40 153 157 vvcurveto
        157 40 153 79 126 vhcurveto
        -31 17 rlineto
        -83 -133 -49 -144 -176 vvcurveto
        -176 49 -144 83 -133 vhcurveto
        endchar
      </CharString>
      <CharString index="48">
        -147 444 34 172 34 hstem
        41 37 159 37 vstem
        158 444 rmoveto
        60 56 45 74 76 -56 45 -60 -61 -56 -45 -76 -74 56 -45 61 hvcurveto
        34 vmoveto
        -47 -33 36 49 51 33 36 47 46 33 -36 -51 -49 -33 -36 -46 hvcurveto
        endchar
      </CharString>
      <CharString index="49">
        -15 callsubr
        hvcurveto
        endchar
      </CharString>
      <CharString index="50">
        -178 -175 906 hstem
        152 45 vstem
        65 -175 rmoveto
        82 133 50 144 176 vvcurveto
        176 -50 144 -82 133 vhcurveto
        -32 -17 rlineto
        79 -126 40 -153 -157 vvcurveto
        -157 -40 -153 -79 -126 vhcurveto
        endchar
      </CharString>
      <CharString index="51">
        622 rmoveto
        17 11 16 16 14 -11 16 -13 callsubr
        -16 12 -16 17 hvcurveto
        return
      </CharString>
      <CharString index="52">
        55 vstem
        307 hmoveto
        -36 202 rlineto
        193 vlineto
        91 -23 49 -79 14 vhcurveto
        -72 12 -9 -45 65 -11 rlineto
        53 -9 10 -35 -67 vvcurveto
        -191 vlineto
        -41 -89 -54 -50 -84 -32 21 -45 rcurveline
        77 28 53 50 39 81 27 -146 rcurveline
        return
      </CharString>
      <CharString index="53">
        574 rmoveto
        28 26 -136 159 -38 -34 rlineto
        return
      </CharString>
      <CharString index="54">
        7 -15 -23 5 -27 hhcurveto
        -94 -77 -70 -100 -58 30 -47 31 -26 hvcurveto
        -4 vlineto
        return
      </CharString>
      <CharString index="55">
        -237 471 82 hstem
        57 40 vstem
        106 553 rmoveto
        -3 -3 0 -1 -3 hvcurveto
        1 56 23 33 45 34 -19 27 rcurveline
        -57 -37 -33 -50 -73 vvcurveto
        -46 19 -25 30 24 17 15 27 27 -21 13 -20 vhcurveto
        endchar
      </CharString>
      <CharString index="56">
        -222 -12 45 685 -20 17 callsubr
        vstem
        154 -12 rmoveto
        16 9 3 2 10 hvcurveto
        -8 42 rlineto
        -2 -10 -4 0 -4 hhcurveto
        -12 -9 10 22 hvcurveto
        653 -52 -647 vlineto
        -56 21 -27 43 vhcurveto
        endchar
      </CharString>
      <CharString index="57">
        98 583 rmoveto
        -102 vlineto
        -66 -4 rlineto
        -40 66 -437 52 437 109 44 -109 99 vlineto
        68 23 38 51 17 20 -4 -9 19 vhcurveto
        13 41 rlineto
        10 -22 -26 6 -24 hhcurveto
        -80 -43 -52 -95 hvcurveto
        return
      </CharString>
      <CharString index="58">
        43 201 41 177 43 return
      </CharString>
      <CharString index="59">
        66 20 35 55 68 vvcurveto
        111 -86 50 -133 vhcurveto
        -181 hlineto
        53 -288 rmoveto
        244 116 vlineto
        117 62 -33 -89 -76 -54 -46 -130 hvcurveto
        -111 -327 rmoveto
        284 129 vlineto
        return
      </CharString>
      <CharString index="60">
        0 -11 callgsubr
        return
      </CharString>
      <CharString index="61">
        18 callgsubr
        23 26 -127 124 -33 -37 rlineto
        return
      </CharString>
      <CharString index="62">
        68 221 44 345 49 return
      </CharString>
      <CharString index="63">
        28 -230 40 188 47 108 39 247 42 -29 41 return
      </CharString>
      <CharString index="64">
        vstem
        219 hmoveto
        59 hlineto
        214 659 -4 callgsubr
        -118 -380 -25 -80 -17 -61 -27 -79 rlinecurve
        -4 hlineto
        -26 79 -17 61 -25 80 -119 380 rcurveline
        -56 hlineto
        return
      </CharString>
      <CharString index="65">
        54 vstem
        406 46 rmoveto
        319 vlineto
        136 -66 49 -100 vhcurveto
        -184 -45 174 hlineto
        73 49 -35 -104 hvcurveto
        -320 -296 -46 296 vlineto
        127 46 hlineto
        return
      </CharString>
      <CharString index="66">
        -22 -16 -30 -31 -42 vvcurveto
        -37 18 -26 24 -15 vhcurveto
        -4 vlineto
        return
      </CharString>
      <CharString index="67">
        -12 -40 callsubr
        return
      </CharString>
      <CharString index="68">
        vstem
        305 249 rmoveto
        135 301 rlineto
        -56 hlineto
        -109 -251 -152 251 rlineto
        -57 hlineto
        305 -504 rlineto
        -329 -46 357 hlineto
        57 hlineto
        return
      </CharString>
      <CharString index="69">
        rmoveto
        -30 callgsubr
        17 11 15 17 vhcurveto
        endchar
      </CharString>
      <CharString index="70">
        55 32 48 64 3 hvcurveto
        -37 3 rlineto
        -46 -6 -19 -28 -29 -54 -22 78 -77 hhcurveto
        return
      </CharString>
      <CharString index="71">
        vstem
        191 hmoveto
        61 hlineto
        176 481 rlineto
        -51 hlineto
        -105 -296 -48 -139 rlineto
        -4 hlineto
        -16 44 -17 49 -15 46 -105 296 rcurveline
        -55 hlineto
        return
      </CharString>
      <CharString index="72">
        -1 callgsubr
        -21 -18 -27 callgsubr
        return
      </CharString>
      <CharString index="73">
        55 365 hlineto
        136 -67 49 -100 vhcurveto
        return
      </CharString>
      <CharString index="74">
        54 vstem
        52 hmoveto
        237 395 hlineto
        91 -45 49 -79 14 vhcurveto
        -73 12 -9 -45 66 -11 rlineto
        54 -9 32 -30 -72 vvcurveto
        -348 -183 vlineto
        return
      </CharString>
      <CharString index="75">
        -174 -255 rlineto
        -23 177 -112 40 112 58 vlineto
        -224 34 rmoveto
        126 190 38 callgsubr
        -4 -105 rlineto
        -85 vlineto
        endchar
      </CharString>
      <CharString index="76">
        24 22 19 29 31 33 callsubr
        -31 -29 22 -19 24 hvcurveto
        return
      </CharString>
      <CharString index="77">
        15 -11 15 -13 callsubr
        -17 12 -15 17 return
      </CharString>
      <CharString index="78">
        -237 469 224 hstem
        83 57.5 vstem
        94 469 rmoveto
        36 hlineto
        10 150 1 74 rlineto
        -58 -74 hlineto
        endchar
      </CharString>
      <CharString index="79">
        741 rmoveto
        252 40 -252 hlineto
        return
      </CharString>
      <CharString index="80">
        -31 -29 21 -19 24 hvcurveto
        return
      </CharString>
      <CharString index="81">
        -66 7 40 -82 103 hhcurveto
        return
      </CharString>
      <CharString index="82">
        54 vstem
        320 hmoveto
        54 388 hlineto
        36 5 47 22 34 vhcurveto
        73 45 -414 -45 287 hlineto
        -18 -28 -9 -41 -48 vvcurveto
        return
      </CharString>
      <CharString index="83">
        rmoveto
        -36 -49 16 44 -52 hvcurveto
        279 vlineto
        50 56 49 6 callgsubr
      </CharString>
      <CharString index="84">
        54 vstem
        371 -200 rmoveto
        54 565 hlineto
        136 -66 49 -100 vhcurveto
        -199 -45 189 hlineto
        73 49 -35 -104 hvcurveto
        return
      </CharString>
      <CharString index="85">
        -55 -32 -48 -65 -3 hvcurveto
        37 -3 rlineto
        46 4 21 28 29 hhcurveto
        return
      </CharString>
      <CharString index="86">
        174 -12 48 623 -20 return
      </CharString>
      <CharString index="87">
        98 550 rmoveto
        167 -52 -212 318 vlineto
        -197 -505 rlineto
        54 hlineto
        198 502 rlineto
        48 vlineto
        return
      </CharString>
      <CharString index="88">
        50 -3 rlineto
        94 -6 45 -57 -89 vvcurveto
        -23 vlineto
        8 -211 -143 -67 -135 -14 -61 508 rcurveline
        -55 hlineto
        return
      </CharString>
      <CharString index="89">
        55 433 hlineto
        -46 callsubr
        return
      </CharString>
      <CharString index="90">
        414 42 -414 hlineto
        return
      </CharString>
      <CharString index="91">
        55 vstem
        83 210 rmoveto
        54 13 1 63 rlineto
        147 vlineto
        -46 callsubr
        return
      </CharString>
      <CharString index="92">
        -20 54 -20 hstem
        return
      </CharString>
      <CharString index="93">
        -60 -39 62 110 110 39 60 60 60 39 -60 -110 -110 -39 -62 -60 hvcurveto
        endchar
      </CharString>
      <CharString index="94">
        -27 callgsubr
        endchar
      </CharString>
      <CharString index="95">
        338 231 40 hstem
        41 718 vstem
        41 231 rmoveto
        718 40 -718 hlineto
        endchar
      </CharString>
      <CharString index="96">
        45 281 46 241 46 return
      </CharString>
      <CharString index="97">
        38 110 -20 26 -20 hstemhm
        return
      </CharString>
      <CharString index="98">
        -17 -12 -16 -14 return
      </CharString>
      <CharString index="99">
        -60 -40 61 111 110 40 59 60 60 39 -59 -110 -111 -39 -61 -60 hvcurveto
        return
      </CharString>
      <CharString index="100">
        23 -12 -49 callgsubr
        232 -20 54 -20 2 callgsubr
        return
      </CharString>
      <CharString index="101">
        416 44 return
      </CharString>
      <CharString index="102">
        113 99 96 164 149 return
      </CharString>
      <CharString index="103">
        rlineto
        -54 hlineto
        return
      </CharString>
      <CharString index="104">
        -34 callsubr
        232 -20 54 -20 2 callsubr
        return
      </CharString>
      <CharString index="105">
        rmoveto
        -17 -12 -15 -15 -17 12 -14 17 17 11 14 17 16 -11 14 -17 hvcurveto
        return
      </CharString>
      <CharString index="106">
        23 callsubr
        18 -24 -24 return
      </CharString>
      <CharString index="107">
        48 587 return
      </CharString>
      <CharString index="108">
        49 40 35 52 53 -40 34 -49 -51 -38 -34 -53 -52 38 -35 51 hvcurveto
        return
      </CharString>
      <CharString index="109">
        hstem
        51 50 299 48 vstem
        return
      </CharString>
      <CharString index="110">
        -217 19 callgsubr
        return
      </CharString>
      <CharString index="111">
        184 42 -184 200 -46 -200 -184 -42 184 hlineto
        return
      </CharString>
      <CharString index="112">
        vstem
        39 767 rmoveto
        105 108 -105 109 -25 -27 63 -63 rlineto
        return
      </CharString>
      <CharString index="113">
        -41 callsubr
        endchar
      </CharString>
      <CharString index="114">
        53 10 57 100.5 54 return
      </CharString>
      <CharString index="115">
        71 362 hstem
        return
      </CharString>
      <CharString index="116">
        44 284 43 244 44 hstemhm
        96 53 295 52 -12 52 return
      </CharString>
      <CharString index="117">
        -15 -27 -27 21 -13 21 3 3 0 1 2 hvcurveto
        -56 -23 -33 return
      </CharString>
      <CharString index="118">
        hstem
        96 53 return
      </CharString>
      <CharString index="119">
        -40 callsubr
        37 callgsubr
        22 callgsubr
        return
      </CharString>
      <CharString index="120">
        26 17 29 57 46 -89 77 hhcurveto
        return
      </CharString>
      <CharString index="121">
        0 46 459 45 hstem
        return
      </CharString>
      <CharString index="122">
        hstem
        35 57 vstem
        64 return
      </CharString>
      <CharString index="123">
        84 32 callsubr
        51 54 299 52 vstem
        return
      </CharString>
      <CharString index="124">
        -12 rmoveto
        42 hlineto
        367 682 3 callsubr
      </CharString>
      <CharString index="125">
        705 rmoveto
        return
      </CharString>
      <CharString index="126">
        659 -20 return
      </CharString>
      <CharString index="127">
        96 6 53 26 54 vvcurveto
        40 -28 19 -43 10 vhcurveto
        return
      </CharString>
      <CharString index="128">
        0 callgsubr
        48 8 callsubr
        return
      </CharString>
      <CharString index="129">
        17 callsubr
        299 54 vstem
        return
      </CharString>
      <CharString index="130">
        rmoveto
        -27 callsubr
        return
      </CharString>
      <CharString index="131">
        0 callgsubr
        48 hstem
        80 53 return
      </CharString>
      <CharString index="132">
        53 659 -53 return
      </CharString>
      <CharString index="133">
        rmoveto
        -156 -34 return
      </CharString>
      <CharString index="134">
        -4 122 -67 58 -112 8 -54 4 rcurveline
        return
      </CharString>
      <CharString index="135">
        hvcurveto
        4 vlineto
        hintmask 11111000
        return
      </CharString>
      <CharString index="136">
        82 hstem
        127 40 return
      </CharString>
      <CharString index="137">
        rmoveto
        -24 -18 -15 -27 return
      </CharString>
      <CharString index="138">
        -11 callgsubr
        11 callgsubr
        return
      </CharString>
      <CharString index="139">
        rmoveto
        97 141 -38 22 -89 -148 rlineto
        return
      </CharString>
      <CharString index="140">
        -54 -12 43 420 42 return
      </CharString>
      <CharString index="141">
        232 -15 callgsubr
        return
      </CharString>
      <CharString index="142">
        19 callgsubr
        hstem
        return
      </CharString>
      <CharString index="143">
        78 120 78 return
      </CharString>
      <CharString index="144">
        225 -20 return
      </CharString>
      <CharString index="145">
        rlineto
        4 hlineto
        return
      </CharString>
      <CharString index="146">
        hlineto
        63 64 -25 26 -105 -109 rlineto
        return
      </CharString>
      <CharString index="147">
        hlineto
        146 90 63 131 137 return
      </CharString>
      <CharString index="148">
        -12 21 callgsubr
        return
      </CharString>
</ttFont>
